<svg width="56" height="48" viewBox="0 0 56 48" fill="none" xmlns="http://www.w3.org/2000/svg">
<path d="M52.9887 11.6344C52.3871 9.4125 50.6206 7.66875 48.3767 7.07812C44.309 6 28 6 28 6C28 6 11.691 6 7.62325 7.07812C5.37933 7.66875 3.61283 9.4125 3.01127 11.6344C1.92273 15.6562 1.92273 24.0375 1.92273 24.0375C1.92273 24.0375 1.92273 32.4188 3.01127 36.4406C3.61283 38.6625 5.37933 40.3312 7.62325 40.9219C11.691 42 28 42 28 42C28 42 44.309 42 48.3767 40.9219C50.6206 40.3312 52.3871 38.6531 52.9887 36.4406C54.0772 32.4188 54.0772 24.0375 54.0772 24.0375C54.0772 24.0375 54.0772 15.6562 52.9887 11.6344ZM22.6719 31.65V16.425L36.2977 24.0375L22.6719 31.65Z" fill="white"/>
</svg>
