<svg width="122" height="107" viewBox="0 0 122 107" fill="none" xmlns="http://www.w3.org/2000/svg">
<path d="M121.735 50.0972C121.735 77.2513 94.6514 99.2534 61.2346 99.2534C52.4668 99.2534 44.1481 97.7409 36.6328 95.0231C33.8205 97.0792 29.2358 99.8915 23.8002 102.255C18.1283 104.713 11.2985 106.816 4.51584 106.816C2.97971 106.816 1.60901 105.894 1.01819 104.476C0.427367 103.058 0.758226 101.451 1.8217 100.364L1.8926 100.293C1.9635 100.222 2.05803 100.128 2.19983 99.9624C2.45979 99.6788 2.86155 99.2298 3.35784 98.6153C4.32678 97.4337 5.62659 95.6849 6.95002 93.5107C9.3133 89.5876 11.5584 84.4356 12.0074 78.6456C4.9176 70.6104 0.734593 60.7556 0.734593 50.0972C0.734593 22.9431 27.8178 0.940918 61.2346 0.940918C94.6514 0.940918 121.735 22.9431 121.735 50.0972Z" fill="white"/>
</svg>
