<svg width="94" height="107" viewBox="0 0 94 107" fill="none" xmlns="http://www.w3.org/2000/svg">
<path d="M26.6972 0.940918C30.3715 0.940918 33.34 3.90146 33.34 7.56592V14.1909H59.9114V7.56592C59.9114 3.90146 62.88 0.940918 66.5543 0.940918C70.2286 0.940918 73.1972 3.90146 73.1972 7.56592V14.1909H83.1614C88.6626 14.1909 93.1257 18.6421 93.1257 24.1284V34.0659H0.125732V24.1284C0.125732 18.6421 4.5889 14.1909 10.09 14.1909H20.0543V7.56592C20.0543 3.90146 23.0228 0.940918 26.6972 0.940918ZM0.125732 40.6909H93.1257V97.0034C93.1257 102.49 88.6626 106.941 83.1614 106.941H10.09C4.5889 106.941 0.125732 102.49 0.125732 97.0034V40.6909ZM13.4114 57.2534V63.8784C13.4114 65.7003 14.9061 67.1909 16.7329 67.1909H23.3757C25.2025 67.1909 26.6972 65.7003 26.6972 63.8784V57.2534C26.6972 55.4315 25.2025 53.9409 23.3757 53.9409H16.7329C14.9061 53.9409 13.4114 55.4315 13.4114 57.2534ZM39.9829 57.2534V63.8784C39.9829 65.7003 41.4775 67.1909 43.3043 67.1909H49.9472C51.7739 67.1909 53.2686 65.7003 53.2686 63.8784V57.2534C53.2686 55.4315 51.7739 53.9409 49.9472 53.9409H43.3043C41.4775 53.9409 39.9829 55.4315 39.9829 57.2534ZM69.8757 53.9409C68.0489 53.9409 66.5543 55.4315 66.5543 57.2534V63.8784C66.5543 65.7003 68.0489 67.1909 69.8757 67.1909H76.5186C78.3454 67.1909 79.84 65.7003 79.84 63.8784V57.2534C79.84 55.4315 78.3454 53.9409 76.5186 53.9409H69.8757ZM13.4114 83.7534V90.3784C13.4114 92.2003 14.9061 93.6909 16.7329 93.6909H23.3757C25.2025 93.6909 26.6972 92.2003 26.6972 90.3784V83.7534C26.6972 81.9315 25.2025 80.4409 23.3757 80.4409H16.7329C14.9061 80.4409 13.4114 81.9315 13.4114 83.7534ZM43.3043 80.4409C41.4775 80.4409 39.9829 81.9315 39.9829 83.7534V90.3784C39.9829 92.2003 41.4775 93.6909 43.3043 93.6909H49.9472C51.7739 93.6909 53.2686 92.2003 53.2686 90.3784V83.7534C53.2686 81.9315 51.7739 80.4409 49.9472 80.4409H43.3043ZM66.5543 83.7534V90.3784C66.5543 92.2003 68.0489 93.6909 69.8757 93.6909H76.5186C78.3454 93.6909 79.84 92.2003 79.84 90.3784V83.7534C79.84 81.9315 78.3454 80.4409 76.5186 80.4409H69.8757C68.0489 80.4409 66.5543 81.9315 66.5543 83.7534Z" fill="white"/>
</svg>
