<svg width="111" height="66" viewBox="0 0 111 66" fill="none" xmlns="http://www.w3.org/2000/svg">
<path d="M55.7254 3.64375L39.0879 17.1188C36.3207 19.3531 35.7879 23.375 37.8848 26.2453C40.102 29.3047 44.416 29.9062 47.3895 27.5859L64.4567 14.3172C65.6598 13.3891 67.3785 13.5953 68.3239 14.7984C69.2692 16.0016 69.0457 17.7203 67.8426 18.6656L64.2504 21.45L94.7067 49.5H101.891C106.446 49.5 110.141 45.8047 110.141 41.25V19.25C110.141 14.6953 106.446 11 101.891 11H88.8285H88.141H88.0207L87.3504 10.5703L74.8723 2.57812C72.2426 0.89375 69.166 0 66.0379 0C62.291 0 58.6473 1.28906 55.7254 3.64375ZM59.6442 25.025L50.7582 31.9344C45.3442 36.1625 37.4895 35.0625 33.4332 29.4938C29.6176 24.2516 30.5801 16.9297 35.616 12.8563L49.916 1.28906C47.9223 0.446875 45.7738 0.0171872 43.591 0.0171872C40.3598 -2.62517e-07 37.2145 0.9625 34.516 2.75L22.141 11H8.39104C3.83635 11 0.141037 14.6953 0.141037 19.25V41.25C0.141037 45.8047 3.83635 49.5 8.39104 49.5H26.9879L42.6973 63.8344C46.066 66.9109 51.2738 66.6703 54.3504 63.3016C55.2957 62.2531 55.9317 61.0328 56.2582 59.7609L59.1801 62.4422C62.5317 65.5187 67.7567 65.2953 70.8332 61.9437C71.6067 61.1016 72.1739 60.1219 72.5348 59.1078C75.8692 61.3422 80.4067 60.8781 83.2082 57.8187C86.2848 54.4672 86.0613 49.2422 82.7098 46.1656L59.6442 25.025Z" fill="white"/>
</svg>
