<svg width="111" height="66" viewBox="0 0 111 66" fill="none" xmlns="http://www.w3.org/2000/svg">
<path d="M55.7255 3.64375L39.088 17.1188C36.3208 19.3531 35.788 23.375 37.8849 26.2453C40.1021 29.3047 44.4161 29.9062 47.3895 27.5859L64.4567 14.3172C65.6599 13.3891 67.3786 13.5953 68.3239 14.7984C69.2692 16.0016 69.0458 17.7203 67.8427 18.6656L64.2505 21.45L94.7067 49.5H101.891C106.446 49.5 110.141 45.8047 110.141 41.25V19.25C110.141 14.6953 106.446 11 101.891 11H88.8286H88.1411H88.0208L87.3505 10.5703L74.8724 2.57812C72.2427 0.89375 69.1661 0 66.038 0C62.2911 0 58.6474 1.28906 55.7255 3.64375ZM59.6442 25.025L50.7583 31.9344C45.3442 36.1625 37.4896 35.0625 33.4333 29.4938C29.6177 24.2516 30.5802 16.9297 35.6161 12.8563L49.9161 1.28906C47.9224 0.446875 45.7739 0.0171872 43.5911 0.0171872C40.3599 -2.62517e-07 37.2146 0.9625 34.5161 2.75L22.1411 11H8.39111C3.83643 11 0.141113 14.6953 0.141113 19.25V41.25C0.141113 45.8047 3.83643 49.5 8.39111 49.5H26.988L42.6974 63.8344C46.0661 66.9109 51.2739 66.6703 54.3505 63.3016C55.2958 62.2531 55.9317 61.0328 56.2583 59.7609L59.1802 62.4422C62.5317 65.5187 67.7567 65.2953 70.8333 61.9437C71.6067 61.1016 72.1739 60.1219 72.5349 59.1078C75.8692 61.3422 80.4067 60.8781 83.2083 57.8187C86.2849 54.4672 86.0614 49.2422 82.7099 46.1656L59.6442 25.025Z" fill="white"/>
</svg>
