<svg width="43" height="44" viewBox="0 0 43 44" fill="none" xmlns="http://www.w3.org/2000/svg">
<g clip-path="url(#clip0_4561_10946)">
<path d="M14.548 34.1516C14.548 34.3234 14.3532 34.4609 14.1077 34.4609C13.8282 34.4867 13.6335 34.3492 13.6335 34.1516C13.6335 33.9797 13.8282 33.8422 14.0738 33.8422C14.3278 33.8164 14.548 33.9539 14.548 34.1516ZM11.9145 33.7648C11.8552 33.9367 12.0246 34.1344 12.2786 34.1859C12.4988 34.2719 12.7528 34.1859 12.8036 34.0141C12.8544 33.8422 12.6935 33.6445 12.4395 33.5672C12.2194 33.507 11.9738 33.593 11.9145 33.7648ZM15.6573 33.6188C15.4117 33.6789 15.2423 33.8422 15.2677 34.0398C15.2931 34.2117 15.5133 34.3234 15.7673 34.2633C16.0129 34.2031 16.1823 34.0398 16.1569 33.868C16.1315 33.7047 15.9028 33.593 15.6573 33.6188ZM21.229 0.6875C9.48427 0.6875 0.5 9.73672 0.5 21.6562C0.5 31.1867 6.41048 39.3422 14.8528 42.2125C15.9367 42.4102 16.3177 41.7313 16.3177 41.1727C16.3177 40.6398 16.2923 37.7008 16.2923 35.8961C16.2923 35.8961 10.3649 37.1852 9.12016 33.3352C9.12016 33.3352 8.15484 30.8344 6.76613 30.1898C6.76613 30.1898 4.82702 28.8406 6.90161 28.8664C6.90161 28.8664 9.01008 29.0383 10.1702 31.0836C12.0246 34.4008 15.1323 33.4469 16.3431 32.8797C16.5379 31.5047 17.0883 30.5508 17.698 29.9836C12.9645 29.4508 8.18871 28.7547 8.18871 20.4875C8.18871 18.1242 8.83226 16.9383 10.1871 15.4258C9.96694 14.8672 9.24718 12.5641 10.4073 9.59062C12.177 9.03203 16.25 11.9109 16.25 11.9109C17.9435 11.4297 19.7641 11.1805 21.5677 11.1805C23.3714 11.1805 25.1919 11.4297 26.8855 11.9109C26.8855 11.9109 30.9585 9.02344 32.7282 9.59062C33.8883 12.5727 33.1685 14.8672 32.9484 15.4258C34.3032 16.9469 35.1331 18.1328 35.1331 20.4875C35.1331 28.7805 30.1456 29.4422 25.4121 29.9836C26.1911 30.6625 26.8516 31.9516 26.8516 33.9711C26.8516 36.8672 26.8262 40.4508 26.8262 41.1555C26.8262 41.7141 27.2157 42.393 28.2911 42.1953C36.7589 39.3422 42.5 31.1867 42.5 21.6562C42.5 9.73672 32.9738 0.6875 21.229 0.6875ZM8.73065 30.3273C8.62056 30.4133 8.64597 30.6109 8.78992 30.7742C8.9254 30.9117 9.12016 30.9719 9.23024 30.8602C9.34032 30.7742 9.31492 30.5766 9.17097 30.4133C9.03548 30.2758 8.84073 30.2156 8.73065 30.3273ZM7.81613 29.6312C7.75686 29.743 7.84153 29.8805 8.01089 29.9664C8.14637 30.0523 8.31573 30.0266 8.375 29.9062C8.43427 29.7945 8.3496 29.657 8.18024 29.5711C8.01089 29.5195 7.8754 29.5453 7.81613 29.6312ZM10.5597 32.6906C10.4242 32.8023 10.475 33.0602 10.6698 33.2234C10.8645 33.4211 11.1101 33.4469 11.2202 33.3094C11.3302 33.1977 11.2794 32.9398 11.1101 32.7766C10.9238 32.5789 10.6698 32.5531 10.5597 32.6906ZM9.59436 31.4273C9.45887 31.5133 9.45887 31.7367 9.59436 31.9344C9.72984 32.132 9.95847 32.218 10.0685 32.132C10.204 32.0203 10.204 31.7969 10.0685 31.5992C9.95 31.4016 9.72984 31.3156 9.59436 31.4273Z" fill="white"/>
</g>
<defs>
<clipPath id="clip0_4561_10946">
<rect width="42" height="44" fill="white" transform="translate(0.5)"/>
</clipPath>
</defs>
</svg>
