<svg width="45" height="44" viewBox="0 0 45 44" fill="none" xmlns="http://www.w3.org/2000/svg">
<path d="M10.3509 43.75H1.22679V14.541H10.3509V43.75ZM5.78393 10.5566C2.86696 10.5566 0.5 8.1543 0.5 5.25391C0.5 3.86048 1.0567 2.52413 2.04763 1.53883C3.03856 0.553535 4.38254 0 5.78393 0C7.18531 0 8.5293 0.553535 9.52023 1.53883C10.5112 2.52413 11.0679 3.86048 11.0679 5.25391C11.0679 8.1543 8.70089 10.5566 5.78393 10.5566ZM44.4902 43.75H35.3857V29.5312C35.3857 26.1426 35.317 21.7969 30.642 21.7969C25.8982 21.7969 25.1714 25.4785 25.1714 29.2871V43.75H16.0571V14.541H24.808V18.5254H24.9357C26.1536 16.2305 29.1295 13.8086 33.5688 13.8086C42.8009 13.8086 44.5 19.8535 44.5 27.7051V43.75H44.4902Z" fill="white"/>
</svg>
