<svg width="134" height="29" viewBox="0 0 134 29" fill="none" xmlns="http://www.w3.org/2000/svg">
<path d="M31.6735 0.5V28.1845H24.8607V11.5817L18.6057 28.1845H13.1076L6.81278 11.5423V28.1845H0V0.5H8.04785L15.8965 19.6662L23.6655 0.5H31.6735Z" fill="#656366"/>
<path d="M46.6922 28.5C44.5143 28.5 42.5488 28.0399 40.7958 27.1197C39.0693 26.1995 37.7015 24.885 36.6922 23.1761C35.7094 21.4671 35.2181 19.469 35.2181 17.1817C35.2181 14.9207 35.7227 12.9357 36.732 11.2268C37.7413 9.49155 39.1225 8.16385 40.8755 7.24366C42.6285 6.32347 44.5939 5.86338 46.7719 5.86338C48.9499 5.86338 50.9154 6.32347 52.6683 7.24366C54.4213 8.16385 55.8025 9.49155 56.8118 11.2268C57.8211 12.9357 58.3257 14.9207 58.3257 17.1817C58.3257 19.4427 57.8078 21.4408 56.772 23.1761C55.7627 24.885 54.3682 26.1995 52.5887 27.1197C50.8357 28.0399 48.8702 28.5 46.6922 28.5ZM46.6922 22.6634C47.9937 22.6634 49.096 22.1901 49.999 21.2437C50.9286 20.2972 51.3934 18.9432 51.3934 17.1817C51.3934 15.4202 50.9419 14.0662 50.0388 13.1197C49.1624 12.1732 48.0734 11.7 46.7719 11.7C45.4439 11.7 44.3416 12.1732 43.4651 13.1197C42.5886 14.0399 42.1504 15.3939 42.1504 17.1817C42.1504 18.9432 42.5753 20.2972 43.4253 21.2437C44.3018 22.1901 45.3908 22.6634 46.6922 22.6634Z" fill="#656366"/>
<path d="M71.9401 21.8746L76.7609 6.17887H84.0119L76.1234 28.1845H67.717L59.8285 6.17887H67.1194L71.9401 21.8746Z" fill="#656366"/>
<path d="M96.9991 28.5C94.8211 28.5 92.8556 28.0399 91.1026 27.1197C89.3762 26.1995 88.0083 24.885 86.999 23.1761C86.0163 21.4671 85.5249 19.469 85.5249 17.1817C85.5249 14.9207 86.0296 12.9357 87.0389 11.2268C88.0482 9.49155 89.4293 8.16385 91.1823 7.24366C92.9353 6.32347 94.9008 5.86338 97.0787 5.86338C99.2567 5.86338 101.222 6.32347 102.975 7.24366C104.728 8.16385 106.109 9.49155 107.119 11.2268C108.128 12.9357 108.633 14.9207 108.633 17.1817C108.633 19.4427 108.115 21.4408 107.079 23.1761C106.069 24.885 104.675 26.1995 102.896 27.1197C101.143 28.0399 99.177 28.5 96.9991 28.5ZM96.9991 22.6634C98.3005 22.6634 99.4028 22.1901 100.306 21.2437C101.235 20.2972 101.7 18.9432 101.7 17.1817C101.7 15.4202 101.249 14.0662 100.346 13.1197C99.4692 12.1732 98.3802 11.7 97.0787 11.7C95.7507 11.7 94.6485 12.1732 93.772 13.1197C92.8955 14.0399 92.4572 15.3939 92.4572 17.1817C92.4572 18.9432 92.8822 20.2972 93.7321 21.2437C94.6086 22.1901 95.6976 22.6634 96.9991 22.6634Z" fill="#8C95F8"/>
<path d="M122.366 28.5C120.189 28.5 118.223 28.0399 116.47 27.1197C114.744 26.1995 113.376 24.885 112.366 23.1761C111.384 21.4671 110.892 19.469 110.892 17.1817C110.892 14.9207 111.397 12.9357 112.406 11.2268C113.416 9.49155 114.797 8.16385 116.55 7.24366C118.303 6.32347 120.268 5.86338 122.446 5.86338C124.624 5.86338 126.59 6.32347 128.343 7.24366C130.096 8.16385 131.477 9.49155 132.486 11.2268C133.495 12.9357 134 14.9207 134 17.1817C134 19.4427 133.482 21.4408 132.446 23.1761C131.437 24.885 130.042 26.1995 128.263 27.1197C126.51 28.0399 124.544 28.5 122.366 28.5ZM122.366 22.6634C123.668 22.6634 124.77 22.1901 125.673 21.2437C126.603 20.2972 127.068 18.9432 127.068 17.1817C127.068 15.4202 126.616 14.0662 125.713 13.1197C124.837 12.1732 123.748 11.7 122.446 11.7C121.118 11.7 120.016 12.1732 119.139 13.1197C118.263 14.0399 117.825 15.3939 117.825 17.1817C117.825 18.9432 118.25 20.2972 119.1 21.2437C119.976 22.1901 121.065 22.6634 122.366 22.6634Z" fill="#656366"/>
</svg>
