<svg width="120" height="120" viewBox="0 0 120 120" fill="none" xmlns="http://www.w3.org/2000/svg">
<path d="M4.13793 0H0V4.13793H4.13793V0Z" fill="#8C95F8"/>
<path d="M8.27586 0H4.13793V4.13793H8.27586V0Z" fill="#8C95F8"/>
<path d="M12.4138 0H8.27586V4.13793H12.4138V0Z" fill="#8C95F8"/>
<path d="M16.5517 0H12.4138V4.13793H16.5517V0Z" fill="#8C95F8"/>
<path d="M20.6897 0H16.5517V4.13793H20.6897V0Z" fill="#8C95F8"/>
<path d="M24.8276 0H20.6897V4.13793H24.8276V0Z" fill="#8C95F8"/>
<path d="M28.9655 0H24.8276V4.13793H28.9655V0Z" fill="#8C95F8"/>
<path d="M37.2414 0H33.1035V4.13793H37.2414V0Z" fill="#8C95F8"/>
<path d="M45.5172 0H41.3793V4.13793H45.5172V0Z" fill="#8C95F8"/>
<path d="M49.6552 0H45.5172V4.13793H49.6552V0Z" fill="#8C95F8"/>
<path d="M57.931 0H53.7931V4.13793H57.931V0Z" fill="#8C95F8"/>
<path d="M62.069 0H57.931V4.13793H62.069V0Z" fill="#8C95F8"/>
<path d="M66.2069 0H62.069V4.13793H66.2069V0Z" fill="#8C95F8"/>
<path d="M70.3448 0H66.2069V4.13793H70.3448V0Z" fill="#8C95F8"/>
<path d="M74.4828 0H70.3448V4.13793H74.4828V0Z" fill="#8C95F8"/>
<path d="M78.6207 0H74.4828V4.13793H78.6207V0Z" fill="#8C95F8"/>
<path d="M82.7586 0H78.6207V4.13793H82.7586V0Z" fill="#8C95F8"/>
<path d="M86.8966 0H82.7586V4.13793H86.8966V0Z" fill="#8C95F8"/>
<path d="M95.1724 0H91.0345V4.13793H95.1724V0Z" fill="#8C95F8"/>
<path d="M99.3104 0H95.1724V4.13793H99.3104V0Z" fill="#8C95F8"/>
<path d="M103.448 0H99.3104V4.13793H103.448V0Z" fill="#8C95F8"/>
<path d="M107.586 0H103.448V4.13793H107.586V0Z" fill="#8C95F8"/>
<path d="M111.724 0H107.586V4.13793H111.724V0Z" fill="#8C95F8"/>
<path d="M115.862 0H111.724V4.13793H115.862V0Z" fill="#8C95F8"/>
<path d="M120 0H115.862V4.13793H120V0Z" fill="#8C95F8"/>
<path d="M4.13793 4.13793H0V8.27586H4.13793V4.13793Z" fill="#8C95F8"/>
<path d="M28.9655 4.13793H24.8276V8.27586H28.9655V4.13793Z" fill="#8C95F8"/>
<path d="M45.5172 4.13793H41.3793V8.27586H45.5172V4.13793Z" fill="#8C95F8"/>
<path d="M53.7931 4.13793H49.6552V8.27586H53.7931V4.13793Z" fill="#8C95F8"/>
<path d="M62.069 4.13793H57.931V8.27586H62.069V4.13793Z" fill="#8C95F8"/>
<path d="M66.2069 4.13793H62.069V8.27586H66.2069V4.13793Z" fill="#8C95F8"/>
<path d="M78.6207 4.13793H74.4828V8.27586H78.6207V4.13793Z" fill="#8C95F8"/>
<path d="M95.1724 4.13793H91.0345V8.27586H95.1724V4.13793Z" fill="#8C95F8"/>
<path d="M120 4.13793H115.862V8.27586H120V4.13793Z" fill="#8C95F8"/>
<path d="M4.13793 8.27586H0V12.4138H4.13793V8.27586Z" fill="#8C95F8"/>
<path d="M12.4138 8.27586H8.27586V12.4138H12.4138V8.27586Z" fill="#8C95F8"/>
<path d="M16.5517 8.27586H12.4138V12.4138H16.5517V8.27586Z" fill="#8C95F8"/>
<path d="M20.6897 8.27586H16.5517V12.4138H20.6897V8.27586Z" fill="#8C95F8"/>
<path d="M28.9655 8.27586H24.8276V12.4138H28.9655V8.27586Z" fill="#8C95F8"/>
<path d="M49.6552 8.27586H45.5172V12.4138H49.6552V8.27586Z" fill="#8C95F8"/>
<path d="M53.7931 8.27586H49.6552V12.4138H53.7931V8.27586Z" fill="#8C95F8"/>
<path d="M57.931 8.27586H53.7931V12.4138H57.931V8.27586Z" fill="#8C95F8"/>
<path d="M62.069 8.27586H57.931V12.4138H62.069V8.27586Z" fill="#8C95F8"/>
<path d="M66.2069 8.27586H62.069V12.4138H66.2069V8.27586Z" fill="#8C95F8"/>
<path d="M70.3448 8.27586H66.2069V12.4138H70.3448V8.27586Z" fill="#8C95F8"/>
<path d="M74.4828 8.27586H70.3448V12.4138H74.4828V8.27586Z" fill="#8C95F8"/>
<path d="M78.6207 8.27586H74.4828V12.4138H78.6207V8.27586Z" fill="#8C95F8"/>
<path d="M86.8966 8.27586H82.7586V12.4138H86.8966V8.27586Z" fill="#8C95F8"/>
<path d="M95.1724 8.27586H91.0345V12.4138H95.1724V8.27586Z" fill="#8C95F8"/>
<path d="M103.448 8.27586H99.3104V12.4138H103.448V8.27586Z" fill="#8C95F8"/>
<path d="M107.586 8.27586H103.448V12.4138H107.586V8.27586Z" fill="#8C95F8"/>
<path d="M111.724 8.27586H107.586V12.4138H111.724V8.27586Z" fill="#8C95F8"/>
<path d="M120 8.27586H115.862V12.4138H120V8.27586Z" fill="#8C95F8"/>
<path d="M4.13793 12.4138H0V16.5517H4.13793V12.4138Z" fill="#8C95F8"/>
<path d="M12.4138 12.4138H8.27586V16.5517H12.4138V12.4138Z" fill="#8C95F8"/>
<path d="M16.5517 12.4138H12.4138V16.5517H16.5517V12.4138Z" fill="#8C95F8"/>
<path d="M20.6897 12.4138H16.5517V16.5517H20.6897V12.4138Z" fill="#8C95F8"/>
<path d="M28.9655 12.4138H24.8276V16.5517H28.9655V12.4138Z" fill="#8C95F8"/>
<path d="M45.5172 12.4138H41.3793V16.5517H45.5172V12.4138Z" fill="#8C95F8"/>
<path d="M57.931 12.4138H53.7931V16.5517H57.931V12.4138Z" fill="#8C95F8"/>
<path d="M62.069 12.4138H57.931V16.5517H62.069V12.4138Z" fill="#8C95F8"/>
<path d="M66.2069 12.4138H62.069V16.5517H66.2069V12.4138Z" fill="#8C95F8"/>
<path d="M70.3448 12.4138H66.2069V16.5517H70.3448V12.4138Z" fill="#8C95F8"/>
<path d="M82.7586 12.4138H78.6207V16.5517H82.7586V12.4138Z" fill="#8C95F8"/>
<path d="M95.1724 12.4138H91.0345V16.5517H95.1724V12.4138Z" fill="#8C95F8"/>
<path d="M103.448 12.4138H99.3104V16.5517H103.448V12.4138Z" fill="#8C95F8"/>
<path d="M107.586 12.4138H103.448V16.5517H107.586V12.4138Z" fill="#8C95F8"/>
<path d="M111.724 12.4138H107.586V16.5517H111.724V12.4138Z" fill="#8C95F8"/>
<path d="M120 12.4138H115.862V16.5517H120V12.4138Z" fill="#8C95F8"/>
<path d="M4.13793 16.5517H0V20.6897H4.13793V16.5517Z" fill="#8C95F8"/>
<path d="M12.4138 16.5517H8.27586V20.6897H12.4138V16.5517Z" fill="#8C95F8"/>
<path d="M16.5517 16.5517H12.4138V20.6897H16.5517V16.5517Z" fill="#8C95F8"/>
<path d="M20.6897 16.5517H16.5517V20.6897H20.6897V16.5517Z" fill="#8C95F8"/>
<path d="M28.9655 16.5517H24.8276V20.6897H28.9655V16.5517Z" fill="#8C95F8"/>
<path d="M45.5172 16.5517H41.3793V20.6897H45.5172V16.5517Z" fill="#8C95F8"/>
<path d="M57.931 16.5517H53.7931V20.6897H57.931V16.5517Z" fill="#8C95F8"/>
<path d="M66.2069 16.5517H62.069V20.6897H66.2069V16.5517Z" fill="#8C95F8"/>
<path d="M74.4828 16.5517H70.3448V20.6897H74.4828V16.5517Z" fill="#8C95F8"/>
<path d="M82.7586 16.5517H78.6207V20.6897H82.7586V16.5517Z" fill="#8C95F8"/>
<path d="M95.1724 16.5517H91.0345V20.6897H95.1724V16.5517Z" fill="#8C95F8"/>
<path d="M103.448 16.5517H99.3104V20.6897H103.448V16.5517Z" fill="#8C95F8"/>
<path d="M107.586 16.5517H103.448V20.6897H107.586V16.5517Z" fill="#8C95F8"/>
<path d="M111.724 16.5517H107.586V20.6897H111.724V16.5517Z" fill="#8C95F8"/>
<path d="M120 16.5517H115.862V20.6897H120V16.5517Z" fill="#8C95F8"/>
<path d="M4.13793 20.6897H0V24.8276H4.13793V20.6897Z" fill="#8C95F8"/>
<path d="M28.9655 20.6897H24.8276V24.8276H28.9655V20.6897Z" fill="#8C95F8"/>
<path d="M45.5172 20.6897H41.3793V24.8276H45.5172V20.6897Z" fill="#8C95F8"/>
<path d="M62.069 20.6897H57.931V24.8276H62.069V20.6897Z" fill="#8C95F8"/>
<path d="M78.6207 20.6897H74.4828V24.8276H78.6207V20.6897Z" fill="#8C95F8"/>
<path d="M82.7586 20.6897H78.6207V24.8276H82.7586V20.6897Z" fill="#8C95F8"/>
<path d="M95.1724 20.6897H91.0345V24.8276H95.1724V20.6897Z" fill="#8C95F8"/>
<path d="M120 20.6897H115.862V24.8276H120V20.6897Z" fill="#8C95F8"/>
<path d="M4.13793 24.8276H0V28.9655H4.13793V24.8276Z" fill="#8C95F8"/>
<path d="M8.27586 24.8276H4.13793V28.9655H8.27586V24.8276Z" fill="#8C95F8"/>
<path d="M12.4138 24.8276H8.27586V28.9655H12.4138V24.8276Z" fill="#8C95F8"/>
<path d="M16.5517 24.8276H12.4138V28.9655H16.5517V24.8276Z" fill="#8C95F8"/>
<path d="M20.6897 24.8276H16.5517V28.9655H20.6897V24.8276Z" fill="#8C95F8"/>
<path d="M24.8276 24.8276H20.6897V28.9655H24.8276V24.8276Z" fill="#8C95F8"/>
<path d="M28.9655 24.8276H24.8276V28.9655H28.9655V24.8276Z" fill="#8C95F8"/>
<path d="M37.2414 24.8276H33.1035V28.9655H37.2414V24.8276Z" fill="#8C95F8"/>
<path d="M45.5172 24.8276H41.3793V28.9655H45.5172V24.8276Z" fill="#8C95F8"/>
<path d="M53.7931 24.8276H49.6552V28.9655H53.7931V24.8276Z" fill="#8C95F8"/>
<path d="M62.069 24.8276H57.931V28.9655H62.069V24.8276Z" fill="#8C95F8"/>
<path d="M70.3448 24.8276H66.2069V28.9655H70.3448V24.8276Z" fill="#8C95F8"/>
<path d="M78.6207 24.8276H74.4828V28.9655H78.6207V24.8276Z" fill="#8C95F8"/>
<path d="M86.8966 24.8276H82.7586V28.9655H86.8966V24.8276Z" fill="#8C95F8"/>
<path d="M95.1724 24.8276H91.0345V28.9655H95.1724V24.8276Z" fill="#8C95F8"/>
<path d="M99.3104 24.8276H95.1724V28.9655H99.3104V24.8276Z" fill="#8C95F8"/>
<path d="M103.448 24.8276H99.3104V28.9655H103.448V24.8276Z" fill="#8C95F8"/>
<path d="M107.586 24.8276H103.448V28.9655H107.586V24.8276Z" fill="#8C95F8"/>
<path d="M111.724 24.8276H107.586V28.9655H111.724V24.8276Z" fill="#8C95F8"/>
<path d="M115.862 24.8276H111.724V28.9655H115.862V24.8276Z" fill="#8C95F8"/>
<path d="M120 24.8276H115.862V28.9655H120V24.8276Z" fill="#8C95F8"/>
<path d="M41.3793 28.9655H37.2414V33.1035H41.3793V28.9655Z" fill="#8C95F8"/>
<path d="M53.7931 28.9655H49.6552V33.1035H53.7931V28.9655Z" fill="#8C95F8"/>
<path d="M66.2069 28.9655H62.069V33.1035H66.2069V28.9655Z" fill="#8C95F8"/>
<path d="M70.3448 28.9655H66.2069V33.1035H70.3448V28.9655Z" fill="#8C95F8"/>
<path d="M74.4828 28.9655H70.3448V33.1035H74.4828V28.9655Z" fill="#8C95F8"/>
<path d="M86.8966 28.9655H82.7586V33.1035H86.8966V28.9655Z" fill="#8C95F8"/>
<path d="M8.27586 33.1035H4.13793V37.2414H8.27586V33.1035Z" fill="#8C95F8"/>
<path d="M12.4138 33.1035H8.27586V37.2414H12.4138V33.1035Z" fill="#8C95F8"/>
<path d="M16.5517 33.1035H12.4138V37.2414H16.5517V33.1035Z" fill="#8C95F8"/>
<path d="M28.9655 33.1035H24.8276V37.2414H28.9655V33.1035Z" fill="#8C95F8"/>
<path d="M33.1035 33.1035H28.9655V37.2414H33.1035V33.1035Z" fill="#8C95F8"/>
<path d="M37.2414 33.1035H33.1035V37.2414H37.2414V33.1035Z" fill="#8C95F8"/>
<path d="M41.3793 33.1035H37.2414V37.2414H41.3793V33.1035Z" fill="#8C95F8"/>
<path d="M49.6552 33.1035H45.5172V37.2414H49.6552V33.1035Z" fill="#8C95F8"/>
<path d="M53.7931 33.1035H49.6552V37.2414H53.7931V33.1035Z" fill="#8C95F8"/>
<path d="M57.931 33.1035H53.7931V37.2414H57.931V33.1035Z" fill="#8C95F8"/>
<path d="M62.069 33.1035H57.931V37.2414H62.069V33.1035Z" fill="#8C95F8"/>
<path d="M70.3448 33.1035H66.2069V37.2414H70.3448V33.1035Z" fill="#8C95F8"/>
<path d="M74.4828 33.1035H70.3448V37.2414H74.4828V33.1035Z" fill="#8C95F8"/>
<path d="M86.8966 33.1035H82.7586V37.2414H86.8966V33.1035Z" fill="#8C95F8"/>
<path d="M91.0345 33.1035H86.8966V37.2414H91.0345V33.1035Z" fill="#8C95F8"/>
<path d="M120 33.1035H115.862V37.2414H120V33.1035Z" fill="#8C95F8"/>
<path d="M8.27586 37.2414H4.13793V41.3793H8.27586V37.2414Z" fill="#8C95F8"/>
<path d="M24.8276 37.2414H20.6897V41.3793H24.8276V37.2414Z" fill="#8C95F8"/>
<path d="M41.3793 37.2414H37.2414V41.3793H41.3793V37.2414Z" fill="#8C95F8"/>
<path d="M49.6552 37.2414H45.5172V41.3793H49.6552V37.2414Z" fill="#8C95F8"/>
<path d="M53.7931 37.2414H49.6552V41.3793H53.7931V37.2414Z" fill="#8C95F8"/>
<path d="M57.931 37.2414H53.7931V41.3793H57.931V37.2414Z" fill="#8C95F8"/>
<path d="M62.069 37.2414H57.931V41.3793H62.069V37.2414Z" fill="#8C95F8"/>
<path d="M66.2069 37.2414H62.069V41.3793H66.2069V37.2414Z" fill="#8C95F8"/>
<path d="M70.3448 37.2414H66.2069V41.3793H70.3448V37.2414Z" fill="#8C95F8"/>
<path d="M74.4828 37.2414H70.3448V41.3793H74.4828V37.2414Z" fill="#8C95F8"/>
<path d="M78.6207 37.2414H74.4828V41.3793H78.6207V37.2414Z" fill="#8C95F8"/>
<path d="M86.8966 37.2414H82.7586V41.3793H86.8966V37.2414Z" fill="#8C95F8"/>
<path d="M115.862 37.2414H111.724V41.3793H115.862V37.2414Z" fill="#8C95F8"/>
<path d="M4.13793 41.3793H0V45.5172H4.13793V41.3793Z" fill="#8C95F8"/>
<path d="M8.27586 41.3793H4.13793V45.5172H8.27586V41.3793Z" fill="#8C95F8"/>
<path d="M12.4138 41.3793H8.27586V45.5172H12.4138V41.3793Z" fill="#8C95F8"/>
<path d="M24.8276 41.3793H20.6897V45.5172H24.8276V41.3793Z" fill="#8C95F8"/>
<path d="M28.9655 41.3793H24.8276V45.5172H28.9655V41.3793Z" fill="#8C95F8"/>
<path d="M33.1035 41.3793H28.9655V45.5172H33.1035V41.3793Z" fill="#8C95F8"/>
<path d="M37.2414 41.3793H33.1035V45.5172H37.2414V41.3793Z" fill="#8C95F8"/>
<path d="M41.3793 41.3793H37.2414V45.5172H41.3793V41.3793Z" fill="#8C95F8"/>
<path d="M57.931 41.3793H53.7931V45.5172H57.931V41.3793Z" fill="#8C95F8"/>
<path d="M74.4828 41.3793H70.3448V45.5172H74.4828V41.3793Z" fill="#8C95F8"/>
<path d="M78.6207 41.3793H74.4828V45.5172H78.6207V41.3793Z" fill="#8C95F8"/>
<path d="M82.7586 41.3793H78.6207V45.5172H82.7586V41.3793Z" fill="#8C95F8"/>
<path d="M86.8966 41.3793H82.7586V45.5172H86.8966V41.3793Z" fill="#8C95F8"/>
<path d="M99.3104 41.3793H95.1724V45.5172H99.3104V41.3793Z" fill="#8C95F8"/>
<path d="M107.586 41.3793H103.448V45.5172H107.586V41.3793Z" fill="#8C95F8"/>
<path d="M111.724 41.3793H107.586V45.5172H111.724V41.3793Z" fill="#8C95F8"/>
<path d="M115.862 41.3793H111.724V45.5172H115.862V41.3793Z" fill="#8C95F8"/>
<path d="M4.13793 45.5172H0V49.6552H4.13793V45.5172Z" fill="#8C95F8"/>
<path d="M12.4138 45.5172H8.27586V49.6552H12.4138V45.5172Z" fill="#8C95F8"/>
<path d="M16.5517 45.5172H12.4138V49.6552H16.5517V45.5172Z" fill="#8C95F8"/>
<path d="M24.8276 45.5172H20.6897V49.6552H24.8276V45.5172Z" fill="#8C95F8"/>
<path d="M33.1035 45.5172H28.9655V49.6552H33.1035V45.5172Z" fill="#8C95F8"/>
<path d="M41.3793 45.5172H37.2414V49.6552H41.3793V45.5172Z" fill="#8C95F8"/>
<path d="M49.6552 45.5172H45.5172V49.6552H49.6552V45.5172Z" fill="#8C95F8"/>
<path d="M57.931 45.5172H53.7931V49.6552H57.931V45.5172Z" fill="#8C95F8"/>
<path d="M62.069 45.5172H57.931V49.6552H62.069V45.5172Z" fill="#8C95F8"/>
<path d="M70.3448 45.5172H66.2069V49.6552H70.3448V45.5172Z" fill="#8C95F8"/>
<path d="M86.8966 45.5172H82.7586V49.6552H86.8966V45.5172Z" fill="#8C95F8"/>
<path d="M103.448 45.5172H99.3104V49.6552H103.448V45.5172Z" fill="#8C95F8"/>
<path d="M107.586 45.5172H103.448V49.6552H107.586V45.5172Z" fill="#8C95F8"/>
<path d="M111.724 45.5172H107.586V49.6552H111.724V45.5172Z" fill="#8C95F8"/>
<path d="M120 45.5172H115.862V49.6552H120V45.5172Z" fill="#8C95F8"/>
<path d="M4.13793 49.6552H0V53.7931H4.13793V49.6552Z" fill="#8C95F8"/>
<path d="M20.6897 49.6552H16.5517V53.7931H20.6897V49.6552Z" fill="#8C95F8"/>
<path d="M28.9655 49.6552H24.8276V53.7931H28.9655V49.6552Z" fill="#8C95F8"/>
<path d="M41.3793 49.6552H37.2414V53.7931H41.3793V49.6552Z" fill="#8C95F8"/>
<path d="M45.5172 49.6552H41.3793V53.7931H45.5172V49.6552Z" fill="#8C95F8"/>
<path d="M70.3448 49.6552H66.2069V53.7931H70.3448V49.6552Z" fill="#8C95F8"/>
<path d="M86.8966 49.6552H82.7586V53.7931H86.8966V49.6552Z" fill="#8C95F8"/>
<path d="M95.1724 49.6552H91.0345V53.7931H95.1724V49.6552Z" fill="#8C95F8"/>
<path d="M107.586 49.6552H103.448V53.7931H107.586V49.6552Z" fill="#8C95F8"/>
<path d="M120 49.6552H115.862V53.7931H120V49.6552Z" fill="#8C95F8"/>
<path d="M8.27586 53.7931H4.13793V57.931H8.27586V53.7931Z" fill="#8C95F8"/>
<path d="M12.4138 53.7931H8.27586V57.931H12.4138V53.7931Z" fill="#8C95F8"/>
<path d="M41.3793 53.7931H37.2414V57.931H41.3793V53.7931Z" fill="#8C95F8"/>
<path d="M45.5172 53.7931H41.3793V57.931H45.5172V53.7931Z" fill="#8C95F8"/>
<path d="M49.6552 53.7931H45.5172V57.931H49.6552V53.7931Z" fill="#8C95F8"/>
<path d="M53.7931 53.7931H49.6552V57.931H53.7931V53.7931Z" fill="#8C95F8"/>
<path d="M74.4828 53.7931H70.3448V57.931H74.4828V53.7931Z" fill="#8C95F8"/>
<path d="M82.7586 53.7931H78.6207V57.931H82.7586V53.7931Z" fill="#8C95F8"/>
<path d="M103.448 53.7931H99.3104V57.931H103.448V53.7931Z" fill="#8C95F8"/>
<path d="M107.586 53.7931H103.448V57.931H107.586V53.7931Z" fill="#8C95F8"/>
<path d="M115.862 53.7931H111.724V57.931H115.862V53.7931Z" fill="#8C95F8"/>
<path d="M120 53.7931H115.862V57.931H120V53.7931Z" fill="#8C95F8"/>
<path d="M8.27586 57.931H4.13793V62.069H8.27586V57.931Z" fill="#8C95F8"/>
<path d="M28.9655 57.931H24.8276V62.069H28.9655V57.931Z" fill="#8C95F8"/>
<path d="M33.1035 57.931H28.9655V62.069H33.1035V57.931Z" fill="#8C95F8"/>
<path d="M45.5172 57.931H41.3793V62.069H45.5172V57.931Z" fill="#8C95F8"/>
<path d="M74.4828 57.931H70.3448V62.069H74.4828V57.931Z" fill="#8C95F8"/>
<path d="M86.8966 57.931H82.7586V62.069H86.8966V57.931Z" fill="#8C95F8"/>
<path d="M91.0345 57.931H86.8966V62.069H91.0345V57.931Z" fill="#8C95F8"/>
<path d="M99.3104 57.931H95.1724V62.069H99.3104V57.931Z" fill="#8C95F8"/>
<path d="M103.448 57.931H99.3104V62.069H103.448V57.931Z" fill="#8C95F8"/>
<path d="M107.586 57.931H103.448V62.069H107.586V57.931Z" fill="#8C95F8"/>
<path d="M4.13793 62.069H0V66.2069H4.13793V62.069Z" fill="#8C95F8"/>
<path d="M12.4138 62.069H8.27586V66.2069H12.4138V62.069Z" fill="#8C95F8"/>
<path d="M20.6897 62.069H16.5517V66.2069H20.6897V62.069Z" fill="#8C95F8"/>
<path d="M24.8276 62.069H20.6897V66.2069H24.8276V62.069Z" fill="#8C95F8"/>
<path d="M33.1035 62.069H28.9655V66.2069H33.1035V62.069Z" fill="#8C95F8"/>
<path d="M45.5172 62.069H41.3793V66.2069H45.5172V62.069Z" fill="#8C95F8"/>
<path d="M49.6552 62.069H45.5172V66.2069H49.6552V62.069Z" fill="#8C95F8"/>
<path d="M53.7931 62.069H49.6552V66.2069H53.7931V62.069Z" fill="#8C95F8"/>
<path d="M57.931 62.069H53.7931V66.2069H57.931V62.069Z" fill="#8C95F8"/>
<path d="M62.069 62.069H57.931V66.2069H62.069V62.069Z" fill="#8C95F8"/>
<path d="M70.3448 62.069H66.2069V66.2069H70.3448V62.069Z" fill="#8C95F8"/>
<path d="M74.4828 62.069H70.3448V66.2069H74.4828V62.069Z" fill="#8C95F8"/>
<path d="M78.6207 62.069H74.4828V66.2069H78.6207V62.069Z" fill="#8C95F8"/>
<path d="M86.8966 62.069H82.7586V66.2069H86.8966V62.069Z" fill="#8C95F8"/>
<path d="M91.0345 62.069H86.8966V66.2069H91.0345V62.069Z" fill="#8C95F8"/>
<path d="M95.1724 62.069H91.0345V66.2069H95.1724V62.069Z" fill="#8C95F8"/>
<path d="M107.586 62.069H103.448V66.2069H107.586V62.069Z" fill="#8C95F8"/>
<path d="M111.724 62.069H107.586V66.2069H111.724V62.069Z" fill="#8C95F8"/>
<path d="M4.13793 66.2069H0V70.3448H4.13793V66.2069Z" fill="#8C95F8"/>
<path d="M8.27586 66.2069H4.13793V70.3448H8.27586V66.2069Z" fill="#8C95F8"/>
<path d="M16.5517 66.2069H12.4138V70.3448H16.5517V66.2069Z" fill="#8C95F8"/>
<path d="M20.6897 66.2069H16.5517V70.3448H20.6897V66.2069Z" fill="#8C95F8"/>
<path d="M28.9655 66.2069H24.8276V70.3448H28.9655V66.2069Z" fill="#8C95F8"/>
<path d="M33.1035 66.2069H28.9655V70.3448H33.1035V66.2069Z" fill="#8C95F8"/>
<path d="M41.3793 66.2069H37.2414V70.3448H41.3793V66.2069Z" fill="#8C95F8"/>
<path d="M70.3448 66.2069H66.2069V70.3448H70.3448V66.2069Z" fill="#8C95F8"/>
<path d="M82.7586 66.2069H78.6207V70.3448H82.7586V66.2069Z" fill="#8C95F8"/>
<path d="M99.3104 66.2069H95.1724V70.3448H99.3104V66.2069Z" fill="#8C95F8"/>
<path d="M103.448 66.2069H99.3104V70.3448H103.448V66.2069Z" fill="#8C95F8"/>
<path d="M107.586 66.2069H103.448V70.3448H107.586V66.2069Z" fill="#8C95F8"/>
<path d="M111.724 66.2069H107.586V70.3448H111.724V66.2069Z" fill="#8C95F8"/>
<path d="M115.862 66.2069H111.724V70.3448H115.862V66.2069Z" fill="#8C95F8"/>
<path d="M4.13793 70.3448H0V74.4828H4.13793V70.3448Z" fill="#8C95F8"/>
<path d="M16.5517 70.3448H12.4138V74.4828H16.5517V70.3448Z" fill="#8C95F8"/>
<path d="M37.2414 70.3448H33.1035V74.4828H37.2414V70.3448Z" fill="#8C95F8"/>
<path d="M45.5172 70.3448H41.3793V74.4828H45.5172V70.3448Z" fill="#8C95F8"/>
<path d="M57.931 70.3448H53.7931V74.4828H57.931V70.3448Z" fill="#8C95F8"/>
<path d="M70.3448 70.3448H66.2069V74.4828H70.3448V70.3448Z" fill="#8C95F8"/>
<path d="M78.6207 70.3448H74.4828V74.4828H78.6207V70.3448Z" fill="#8C95F8"/>
<path d="M86.8966 70.3448H82.7586V74.4828H86.8966V70.3448Z" fill="#8C95F8"/>
<path d="M107.586 70.3448H103.448V74.4828H107.586V70.3448Z" fill="#8C95F8"/>
<path d="M111.724 70.3448H107.586V74.4828H111.724V70.3448Z" fill="#8C95F8"/>
<path d="M120 70.3448H115.862V74.4828H120V70.3448Z" fill="#8C95F8"/>
<path d="M8.27586 74.4828H4.13793V78.6207H8.27586V74.4828Z" fill="#8C95F8"/>
<path d="M12.4138 74.4828H8.27586V78.6207H12.4138V74.4828Z" fill="#8C95F8"/>
<path d="M20.6897 74.4828H16.5517V78.6207H20.6897V74.4828Z" fill="#8C95F8"/>
<path d="M28.9655 74.4828H24.8276V78.6207H28.9655V74.4828Z" fill="#8C95F8"/>
<path d="M37.2414 74.4828H33.1035V78.6207H37.2414V74.4828Z" fill="#8C95F8"/>
<path d="M45.5172 74.4828H41.3793V78.6207H45.5172V74.4828Z" fill="#8C95F8"/>
<path d="M49.6552 74.4828H45.5172V78.6207H49.6552V74.4828Z" fill="#8C95F8"/>
<path d="M57.931 74.4828H53.7931V78.6207H57.931V74.4828Z" fill="#8C95F8"/>
<path d="M66.2069 74.4828H62.069V78.6207H66.2069V74.4828Z" fill="#8C95F8"/>
<path d="M74.4828 74.4828H70.3448V78.6207H74.4828V74.4828Z" fill="#8C95F8"/>
<path d="M78.6207 74.4828H74.4828V78.6207H78.6207V74.4828Z" fill="#8C95F8"/>
<path d="M99.3104 74.4828H95.1724V78.6207H99.3104V74.4828Z" fill="#8C95F8"/>
<path d="M107.586 74.4828H103.448V78.6207H107.586V74.4828Z" fill="#8C95F8"/>
<path d="M20.6897 78.6207H16.5517V82.7586H20.6897V78.6207Z" fill="#8C95F8"/>
<path d="M33.1035 78.6207H28.9655V82.7586H33.1035V78.6207Z" fill="#8C95F8"/>
<path d="M37.2414 78.6207H33.1035V82.7586H37.2414V78.6207Z" fill="#8C95F8"/>
<path d="M41.3793 78.6207H37.2414V82.7586H41.3793V78.6207Z" fill="#8C95F8"/>
<path d="M49.6552 78.6207H45.5172V82.7586H49.6552V78.6207Z" fill="#8C95F8"/>
<path d="M53.7931 78.6207H49.6552V82.7586H53.7931V78.6207Z" fill="#8C95F8"/>
<path d="M57.931 78.6207H53.7931V82.7586H57.931V78.6207Z" fill="#8C95F8"/>
<path d="M66.2069 78.6207H62.069V82.7586H66.2069V78.6207Z" fill="#8C95F8"/>
<path d="M78.6207 78.6207H74.4828V82.7586H78.6207V78.6207Z" fill="#8C95F8"/>
<path d="M82.7586 78.6207H78.6207V82.7586H82.7586V78.6207Z" fill="#8C95F8"/>
<path d="M86.8966 78.6207H82.7586V82.7586H86.8966V78.6207Z" fill="#8C95F8"/>
<path d="M95.1724 78.6207H91.0345V82.7586H95.1724V78.6207Z" fill="#8C95F8"/>
<path d="M103.448 78.6207H99.3104V82.7586H103.448V78.6207Z" fill="#8C95F8"/>
<path d="M107.586 78.6207H103.448V82.7586H107.586V78.6207Z" fill="#8C95F8"/>
<path d="M111.724 78.6207H107.586V82.7586H111.724V78.6207Z" fill="#8C95F8"/>
<path d="M120 78.6207H115.862V82.7586H120V78.6207Z" fill="#8C95F8"/>
<path d="M8.27586 82.7586H4.13793V86.8966H8.27586V82.7586Z" fill="#8C95F8"/>
<path d="M12.4138 82.7586H8.27586V86.8966H12.4138V82.7586Z" fill="#8C95F8"/>
<path d="M20.6897 82.7586H16.5517V86.8966H20.6897V82.7586Z" fill="#8C95F8"/>
<path d="M24.8276 82.7586H20.6897V86.8966H24.8276V82.7586Z" fill="#8C95F8"/>
<path d="M28.9655 82.7586H24.8276V86.8966H28.9655V82.7586Z" fill="#8C95F8"/>
<path d="M33.1035 82.7586H28.9655V86.8966H33.1035V82.7586Z" fill="#8C95F8"/>
<path d="M57.931 82.7586H53.7931V86.8966H57.931V82.7586Z" fill="#8C95F8"/>
<path d="M62.069 82.7586H57.931V86.8966H62.069V82.7586Z" fill="#8C95F8"/>
<path d="M74.4828 82.7586H70.3448V86.8966H74.4828V82.7586Z" fill="#8C95F8"/>
<path d="M82.7586 82.7586H78.6207V86.8966H82.7586V82.7586Z" fill="#8C95F8"/>
<path d="M86.8966 82.7586H82.7586V86.8966H86.8966V82.7586Z" fill="#8C95F8"/>
<path d="M91.0345 82.7586H86.8966V86.8966H91.0345V82.7586Z" fill="#8C95F8"/>
<path d="M95.1724 82.7586H91.0345V86.8966H95.1724V82.7586Z" fill="#8C95F8"/>
<path d="M99.3104 82.7586H95.1724V86.8966H99.3104V82.7586Z" fill="#8C95F8"/>
<path d="M103.448 82.7586H99.3104V86.8966H103.448V82.7586Z" fill="#8C95F8"/>
<path d="M37.2414 86.8966H33.1035V91.0345H37.2414V86.8966Z" fill="#8C95F8"/>
<path d="M41.3793 86.8966H37.2414V91.0345H41.3793V86.8966Z" fill="#8C95F8"/>
<path d="M57.931 86.8966H53.7931V91.0345H57.931V86.8966Z" fill="#8C95F8"/>
<path d="M62.069 86.8966H57.931V91.0345H62.069V86.8966Z" fill="#8C95F8"/>
<path d="M70.3448 86.8966H66.2069V91.0345H70.3448V86.8966Z" fill="#8C95F8"/>
<path d="M86.8966 86.8966H82.7586V91.0345H86.8966V86.8966Z" fill="#8C95F8"/>
<path d="M103.448 86.8966H99.3104V91.0345H103.448V86.8966Z" fill="#8C95F8"/>
<path d="M107.586 86.8966H103.448V91.0345H107.586V86.8966Z" fill="#8C95F8"/>
<path d="M111.724 86.8966H107.586V91.0345H111.724V86.8966Z" fill="#8C95F8"/>
<path d="M115.862 86.8966H111.724V91.0345H115.862V86.8966Z" fill="#8C95F8"/>
<path d="M4.13793 91.0345H0V95.1724H4.13793V91.0345Z" fill="#8C95F8"/>
<path d="M8.27586 91.0345H4.13793V95.1724H8.27586V91.0345Z" fill="#8C95F8"/>
<path d="M12.4138 91.0345H8.27586V95.1724H12.4138V91.0345Z" fill="#8C95F8"/>
<path d="M16.5517 91.0345H12.4138V95.1724H16.5517V91.0345Z" fill="#8C95F8"/>
<path d="M20.6897 91.0345H16.5517V95.1724H20.6897V91.0345Z" fill="#8C95F8"/>
<path d="M24.8276 91.0345H20.6897V95.1724H24.8276V91.0345Z" fill="#8C95F8"/>
<path d="M28.9655 91.0345H24.8276V95.1724H28.9655V91.0345Z" fill="#8C95F8"/>
<path d="M37.2414 91.0345H33.1035V95.1724H37.2414V91.0345Z" fill="#8C95F8"/>
<path d="M53.7931 91.0345H49.6552V95.1724H53.7931V91.0345Z" fill="#8C95F8"/>
<path d="M57.931 91.0345H53.7931V95.1724H57.931V91.0345Z" fill="#8C95F8"/>
<path d="M74.4828 91.0345H70.3448V95.1724H74.4828V91.0345Z" fill="#8C95F8"/>
<path d="M82.7586 91.0345H78.6207V95.1724H82.7586V91.0345Z" fill="#8C95F8"/>
<path d="M86.8966 91.0345H82.7586V95.1724H86.8966V91.0345Z" fill="#8C95F8"/>
<path d="M95.1724 91.0345H91.0345V95.1724H95.1724V91.0345Z" fill="#8C95F8"/>
<path d="M103.448 91.0345H99.3104V95.1724H103.448V91.0345Z" fill="#8C95F8"/>
<path d="M111.724 91.0345H107.586V95.1724H111.724V91.0345Z" fill="#8C95F8"/>
<path d="M115.862 91.0345H111.724V95.1724H115.862V91.0345Z" fill="#8C95F8"/>
<path d="M4.13793 95.1724H0V99.3104H4.13793V95.1724Z" fill="#8C95F8"/>
<path d="M28.9655 95.1724H24.8276V99.3104H28.9655V95.1724Z" fill="#8C95F8"/>
<path d="M41.3793 95.1724H37.2414V99.3104H41.3793V95.1724Z" fill="#8C95F8"/>
<path d="M45.5172 95.1724H41.3793V99.3104H45.5172V95.1724Z" fill="#8C95F8"/>
<path d="M53.7931 95.1724H49.6552V99.3104H53.7931V95.1724Z" fill="#8C95F8"/>
<path d="M57.931 95.1724H53.7931V99.3104H57.931V95.1724Z" fill="#8C95F8"/>
<path d="M66.2069 95.1724H62.069V99.3104H66.2069V95.1724Z" fill="#8C95F8"/>
<path d="M74.4828 95.1724H70.3448V99.3104H74.4828V95.1724Z" fill="#8C95F8"/>
<path d="M86.8966 95.1724H82.7586V99.3104H86.8966V95.1724Z" fill="#8C95F8"/>
<path d="M103.448 95.1724H99.3104V99.3104H103.448V95.1724Z" fill="#8C95F8"/>
<path d="M111.724 95.1724H107.586V99.3104H111.724V95.1724Z" fill="#8C95F8"/>
<path d="M120 95.1724H115.862V99.3104H120V95.1724Z" fill="#8C95F8"/>
<path d="M4.13793 99.3104H0V103.448H4.13793V99.3104Z" fill="#8C95F8"/>
<path d="M12.4138 99.3104H8.27586V103.448H12.4138V99.3104Z" fill="#8C95F8"/>
<path d="M16.5517 99.3104H12.4138V103.448H16.5517V99.3104Z" fill="#8C95F8"/>
<path d="M20.6897 99.3104H16.5517V103.448H20.6897V99.3104Z" fill="#8C95F8"/>
<path d="M28.9655 99.3104H24.8276V103.448H28.9655V99.3104Z" fill="#8C95F8"/>
<path d="M41.3793 99.3104H37.2414V103.448H41.3793V99.3104Z" fill="#8C95F8"/>
<path d="M57.931 99.3104H53.7931V103.448H57.931V99.3104Z" fill="#8C95F8"/>
<path d="M74.4828 99.3104H70.3448V103.448H74.4828V99.3104Z" fill="#8C95F8"/>
<path d="M78.6207 99.3104H74.4828V103.448H78.6207V99.3104Z" fill="#8C95F8"/>
<path d="M86.8966 99.3104H82.7586V103.448H86.8966V99.3104Z" fill="#8C95F8"/>
<path d="M91.0345 99.3104H86.8966V103.448H91.0345V99.3104Z" fill="#8C95F8"/>
<path d="M95.1724 99.3104H91.0345V103.448H95.1724V99.3104Z" fill="#8C95F8"/>
<path d="M99.3104 99.3104H95.1724V103.448H99.3104V99.3104Z" fill="#8C95F8"/>
<path d="M103.448 99.3104H99.3104V103.448H103.448V99.3104Z" fill="#8C95F8"/>
<path d="M111.724 99.3104H107.586V103.448H111.724V99.3104Z" fill="#8C95F8"/>
<path d="M115.862 99.3104H111.724V103.448H115.862V99.3104Z" fill="#8C95F8"/>
<path d="M4.13793 103.448H0V107.586H4.13793V103.448Z" fill="#8C95F8"/>
<path d="M12.4138 103.448H8.27586V107.586H12.4138V103.448Z" fill="#8C95F8"/>
<path d="M16.5517 103.448H12.4138V107.586H16.5517V103.448Z" fill="#8C95F8"/>
<path d="M20.6897 103.448H16.5517V107.586H20.6897V103.448Z" fill="#8C95F8"/>
<path d="M28.9655 103.448H24.8276V107.586H28.9655V103.448Z" fill="#8C95F8"/>
<path d="M37.2414 103.448H33.1035V107.586H37.2414V103.448Z" fill="#8C95F8"/>
<path d="M49.6552 103.448H45.5172V107.586H49.6552V103.448Z" fill="#8C95F8"/>
<path d="M62.069 103.448H57.931V107.586H62.069V103.448Z" fill="#8C95F8"/>
<path d="M70.3448 103.448H66.2069V107.586H70.3448V103.448Z" fill="#8C95F8"/>
<path d="M78.6207 103.448H74.4828V107.586H78.6207V103.448Z" fill="#8C95F8"/>
<path d="M91.0345 103.448H86.8966V107.586H91.0345V103.448Z" fill="#8C95F8"/>
<path d="M95.1724 103.448H91.0345V107.586H95.1724V103.448Z" fill="#8C95F8"/>
<path d="M103.448 103.448H99.3104V107.586H103.448V103.448Z" fill="#8C95F8"/>
<path d="M107.586 103.448H103.448V107.586H107.586V103.448Z" fill="#8C95F8"/>
<path d="M111.724 103.448H107.586V107.586H111.724V103.448Z" fill="#8C95F8"/>
<path d="M115.862 103.448H111.724V107.586H115.862V103.448Z" fill="#8C95F8"/>
<path d="M4.13793 107.586H0V111.724H4.13793V107.586Z" fill="#8C95F8"/>
<path d="M12.4138 107.586H8.27586V111.724H12.4138V107.586Z" fill="#8C95F8"/>
<path d="M16.5517 107.586H12.4138V111.724H16.5517V107.586Z" fill="#8C95F8"/>
<path d="M20.6897 107.586H16.5517V111.724H20.6897V107.586Z" fill="#8C95F8"/>
<path d="M28.9655 107.586H24.8276V111.724H28.9655V107.586Z" fill="#8C95F8"/>
<path d="M37.2414 107.586H33.1035V111.724H37.2414V107.586Z" fill="#8C95F8"/>
<path d="M41.3793 107.586H37.2414V111.724H41.3793V107.586Z" fill="#8C95F8"/>
<path d="M62.069 107.586H57.931V111.724H62.069V107.586Z" fill="#8C95F8"/>
<path d="M66.2069 107.586H62.069V111.724H66.2069V107.586Z" fill="#8C95F8"/>
<path d="M70.3448 107.586H66.2069V111.724H70.3448V107.586Z" fill="#8C95F8"/>
<path d="M74.4828 107.586H70.3448V111.724H74.4828V107.586Z" fill="#8C95F8"/>
<path d="M86.8966 107.586H82.7586V111.724H86.8966V107.586Z" fill="#8C95F8"/>
<path d="M95.1724 107.586H91.0345V111.724H95.1724V107.586Z" fill="#8C95F8"/>
<path d="M107.586 107.586H103.448V111.724H107.586V107.586Z" fill="#8C95F8"/>
<path d="M111.724 107.586H107.586V111.724H111.724V107.586Z" fill="#8C95F8"/>
<path d="M115.862 107.586H111.724V111.724H115.862V107.586Z" fill="#8C95F8"/>
<path d="M120 107.586H115.862V111.724H120V107.586Z" fill="#8C95F8"/>
<path d="M4.13793 111.724H0V115.862H4.13793V111.724Z" fill="#8C95F8"/>
<path d="M28.9655 111.724H24.8276V115.862H28.9655V111.724Z" fill="#8C95F8"/>
<path d="M37.2414 111.724H33.1035V115.862H37.2414V111.724Z" fill="#8C95F8"/>
<path d="M41.3793 111.724H37.2414V115.862H41.3793V111.724Z" fill="#8C95F8"/>
<path d="M57.931 111.724H53.7931V115.862H57.931V111.724Z" fill="#8C95F8"/>
<path d="M74.4828 111.724H70.3448V115.862H74.4828V111.724Z" fill="#8C95F8"/>
<path d="M86.8966 111.724H82.7586V115.862H86.8966V111.724Z" fill="#8C95F8"/>
<path d="M103.448 111.724H99.3104V115.862H103.448V111.724Z" fill="#8C95F8"/>
<path d="M111.724 111.724H107.586V115.862H111.724V111.724Z" fill="#8C95F8"/>
<path d="M4.13793 115.862H0V120H4.13793V115.862Z" fill="#8C95F8"/>
<path d="M8.27586 115.862H4.13793V120H8.27586V115.862Z" fill="#8C95F8"/>
<path d="M12.4138 115.862H8.27586V120H12.4138V115.862Z" fill="#8C95F8"/>
<path d="M16.5517 115.862H12.4138V120H16.5517V115.862Z" fill="#8C95F8"/>
<path d="M20.6897 115.862H16.5517V120H20.6897V115.862Z" fill="#8C95F8"/>
<path d="M24.8276 115.862H20.6897V120H24.8276V115.862Z" fill="#8C95F8"/>
<path d="M28.9655 115.862H24.8276V120H28.9655V115.862Z" fill="#8C95F8"/>
<path d="M53.7931 115.862H49.6552V120H53.7931V115.862Z" fill="#8C95F8"/>
<path d="M57.931 115.862H53.7931V120H57.931V115.862Z" fill="#8C95F8"/>
<path d="M66.2069 115.862H62.069V120H66.2069V115.862Z" fill="#8C95F8"/>
<path d="M74.4828 115.862H70.3448V120H74.4828V115.862Z" fill="#8C95F8"/>
<path d="M78.6207 115.862H74.4828V120H78.6207V115.862Z" fill="#8C95F8"/>
<path d="M86.8966 115.862H82.7586V120H86.8966V115.862Z" fill="#8C95F8"/>
<path d="M99.3104 115.862H95.1724V120H99.3104V115.862Z" fill="#8C95F8"/>
<path d="M103.448 115.862H99.3104V120H103.448V115.862Z" fill="#8C95F8"/>
<path d="M107.586 115.862H103.448V120H107.586V115.862Z" fill="#8C95F8"/>
<path d="M115.862 115.862H111.724V120H115.862V115.862Z" fill="#8C95F8"/>
</svg>
