<svg width="85" height="95" viewBox="0 0 85 95" fill="none" xmlns="http://www.w3.org/2000/svg">
<path d="M63.8288 48.0742L58.8379 43.0834L35.8613 66.06L25.8796 56.0784L20.8888 61.0692L35.8613 76.0417L63.8288 48.0742ZM75.4583 10.125H70.75V0.708374H61.3333V10.125H23.6667V0.708374H14.25V10.125H9.54167C4.31542 10.125 0.172087 14.3625 0.172087 19.5417L0.125004 85.4584C0.125004 90.6375 4.31542 94.875 9.54167 94.875H75.4583C80.6375 94.875 84.875 90.6375 84.875 85.4584V19.5417C84.875 14.3625 80.6375 10.125 75.4583 10.125ZM75.4583 85.4584H9.54167V33.6667H75.4583V85.4584Z" fill="white"/>
</svg>
