<svg width="79" height="91" viewBox="0 0 79 91" fill="none" xmlns="http://www.w3.org/2000/svg">
<path d="M78.3761 31.0562C78.7676 29.5371 77.8512 27.9875 76.3293 27.5933L66.0957 24.9662L75.0906 20.0479C76.4681 19.2954 76.9736 17.5651 76.2209 16.1877C75.4682 14.8103 73.7381 14.3048 72.3606 15.0601L60.9746 21.2892L67.9452 4.36C68.0285 4.15454 68.0257 3.92118 67.9313 3.71856C67.8396 3.51576 67.6647 3.36025 67.4536 3.28809C67.4536 3.28809 61.8215 0.366488 58.639 0.366488C52.0545 0.366488 45.6561 3.81845 39.8324 3.81845C38.0689 3.81845 36.3582 3.5019 34.7142 2.67704C30.8462 0.744352 27.4692 0 24.2728 0C19.4434 0 10.89 3.33536 10.89 3.33536C10.6623 3.39099 10.4707 3.54367 10.3651 3.75464C10.2595 3.96294 10.2512 4.20733 10.3401 4.42399L18.0132 23.061C17.0689 23.5276 16.4136 24.4884 16.4136 25.6105C16.4136 26.577 16.8995 27.4294 17.6384 27.9432C13.8866 32.4143 4.63603 44.392 1.15066 57.6304C-3.87318 76.7285 7.33244 91 39.1302 91C70.9251 91 82.1307 76.7285 77.1069 57.6304C74.0326 45.9554 66.4734 35.2581 62.1578 29.826L74.9158 33.103C76.435 33.4946 77.9845 32.5782 78.3761 31.0562ZM24.2728 7.10938C26.5972 7.10938 28.9051 7.72309 31.5349 9.03673C34.0425 10.2921 36.8337 10.928 39.8329 10.928C43.6126 10.928 47.1339 9.96148 50.5386 9.02837C53.4518 8.22857 56.201 7.47604 58.6394 7.47604L58.9726 7.48155L52.6798 22.7667H25.5779L19.4349 7.84253C21.1236 7.38433 22.7093 7.10938 24.2728 7.10938ZM68.3481 74.8429C63.8493 80.6775 53.4741 83.8906 39.1302 83.8906C24.7836 83.8906 14.4084 80.6775 9.90959 74.8429C6.9743 71.0326 6.33819 65.8506 8.02667 59.4411C11.9201 44.6447 24.3505 31.0452 24.4699 30.9148L26.7528 28.4542H51.5051L53.7879 30.9148C53.9129 31.0509 66.3127 44.5504 70.231 59.4411C71.9193 65.8506 71.2834 71.0326 68.3481 74.8429Z" fill="white"/>
</svg>
