<svg width="25" height="32" viewBox="0 0 25 32" fill="none" xmlns="http://www.w3.org/2000/svg">
<path d="M23.0895 6.6215L22.2925 6.28824C20.9816 5.73282 19.618 5.45503 18.2406 5.45503C14.2554 5.45503 10.5951 7.76558 8.83734 11.3036H22.1285L21.3093 15.2749H7.75991C7.74321 15.497 7.73219 15.7304 7.73219 15.9581C7.73219 16.5247 7.78213 17.1023 7.87935 17.6855H20.8179L20.0014 21.6513H9.42617C11.3535 24.6505 14.6361 26.4668 18.2407 26.4668C19.4627 26.4668 20.6874 26.2446 21.8814 25.8003L22.8339 25.4448V31.0267L22.3117 31.1655C20.9732 31.5265 19.6041 31.7099 18.2406 31.7099C11.7533 31.7099 5.91859 27.6887 3.57196 21.6513H0.217224V17.6855H2.59726C2.5251 17.0744 2.48902 16.508 2.48902 15.9581C2.48902 15.7304 2.49453 15.497 2.50573 15.2749H0.2174V11.3036H3.21116C5.24408 4.74409 11.348 0.206177 18.2409 0.206177C20.071 0.206177 21.8706 0.528408 23.5896 1.15599L24.1618 1.36714L23.0895 6.6215Z" fill="white"/>
</svg>
