<svg width="87" height="91" viewBox="0 0 87 91" fill="none" xmlns="http://www.w3.org/2000/svg">
<path d="M43.5 0C44.3176 0 45.1351 0.177734 45.8816 0.51543L79.349 14.7164C83.2592 16.3693 86.174 20.2262 86.1562 24.8828C86.0674 42.5141 78.8158 74.7729 48.1922 89.4359C45.224 90.8578 41.776 90.8578 38.8078 89.4359C8.18417 74.7729 0.932606 42.5141 0.843739 24.8828C0.825966 20.2262 3.74081 16.3693 7.65097 14.7164L41.1361 0.51543C41.8648 0.177734 42.6824 0 43.5 0ZM43.5 11.8727V79.074C68.0273 67.1836 74.6213 40.8967 74.7812 25.1316L43.5 11.8727Z" fill="white"/>
</svg>
