<svg width="1704" height="1704" viewBox="0 0 1704 1704" fill="none" xmlns="http://www.w3.org/2000/svg">
<path d="M58.9005 0.152344H0.152344V58.9005H58.9005V0.152344Z" fill="black"/>
<path d="M117.649 0.152344H58.9005V58.9005H117.649V0.152344Z" fill="black"/>
<path d="M176.397 0.152344H117.649V58.9005H176.397V0.152344Z" fill="black"/>
<path d="M235.145 0.152344H176.397V58.9005H235.145V0.152344Z" fill="black"/>
<path d="M293.893 0.152344H235.145V58.9005H293.893V0.152344Z" fill="black"/>
<path d="M352.641 0.152344H293.893V58.9005H352.641V0.152344Z" fill="black"/>
<path d="M411.389 0.152344H352.641V58.9005H411.389V0.152344Z" fill="black"/>
<path d="M528.885 0.152344H470.137V58.9005H528.885V0.152344Z" fill="black"/>
<path d="M646.382 0.152344H587.633V58.9005H646.382V0.152344Z" fill="black"/>
<path d="M705.13 0.152344H646.382V58.9005H705.13V0.152344Z" fill="black"/>
<path d="M822.626 0.152344H763.878V58.9005H822.626V0.152344Z" fill="black"/>
<path d="M881.374 0.152344H822.626V58.9005H881.374V0.152344Z" fill="black"/>
<path d="M940.122 0.152344H881.374V58.9005H940.122V0.152344Z" fill="black"/>
<path d="M998.87 0.152344H940.122V58.9005H998.87V0.152344Z" fill="black"/>
<path d="M1057.62 0.152344H998.87V58.9005H1057.62V0.152344Z" fill="black"/>
<path d="M1116.37 0.152344H1057.62V58.9005H1116.37V0.152344Z" fill="black"/>
<path d="M1175.11 0.152344H1116.37V58.9005H1175.11V0.152344Z" fill="black"/>
<path d="M1233.86 0.152344H1175.11V58.9005H1233.86V0.152344Z" fill="black"/>
<path d="M1351.36 0.152344H1292.61V58.9005H1351.36V0.152344Z" fill="black"/>
<path d="M1410.11 0.152344H1351.36V58.9005H1410.11V0.152344Z" fill="black"/>
<path d="M1468.86 0.152344H1410.11V58.9005H1468.86V0.152344Z" fill="black"/>
<path d="M1527.6 0.152344H1468.86V58.9005H1527.6V0.152344Z" fill="black"/>
<path d="M1586.35 0.152344H1527.6V58.9005H1586.35V0.152344Z" fill="black"/>
<path d="M1645.1 0.152344H1586.35V58.9005H1645.1V0.152344Z" fill="black"/>
<path d="M1703.85 0.152344H1645.1V58.9005H1703.85V0.152344Z" fill="black"/>
<path d="M58.9005 58.9005H0.152344V117.649H58.9005V58.9005Z" fill="black"/>
<path d="M411.389 58.9005H352.641V117.649H411.389V58.9005Z" fill="black"/>
<path d="M646.382 58.9005H587.633V117.649H646.382V58.9005Z" fill="black"/>
<path d="M763.878 58.9005H705.13V117.649H763.878V58.9005Z" fill="black"/>
<path d="M881.374 58.9005H822.626V117.649H881.374V58.9005Z" fill="black"/>
<path d="M940.122 58.9005H881.374V117.649H940.122V58.9005Z" fill="black"/>
<path d="M1116.37 58.9005H1057.62V117.649H1116.37V58.9005Z" fill="black"/>
<path d="M1351.36 58.9005H1292.61V117.649H1351.36V58.9005Z" fill="black"/>
<path d="M1703.85 58.9005H1645.1V117.649H1703.85V58.9005Z" fill="black"/>
<path d="M58.9005 117.649H0.152344V176.397H58.9005V117.649Z" fill="black"/>
<path d="M176.397 117.649H117.649V176.397H176.397V117.649Z" fill="black"/>
<path d="M235.145 117.649H176.397V176.397H235.145V117.649Z" fill="black"/>
<path d="M293.893 117.649H235.145V176.397H293.893V117.649Z" fill="black"/>
<path d="M411.389 117.649H352.641V176.397H411.389V117.649Z" fill="black"/>
<path d="M705.13 117.649H646.382V176.397H705.13V117.649Z" fill="black"/>
<path d="M763.878 117.649H705.13V176.397H763.878V117.649Z" fill="black"/>
<path d="M822.626 117.649H763.878V176.397H822.626V117.649Z" fill="black"/>
<path d="M881.374 117.649H822.626V176.397H881.374V117.649Z" fill="black"/>
<path d="M940.122 117.649H881.374V176.397H940.122V117.649Z" fill="black"/>
<path d="M998.87 117.649H940.122V176.397H998.87V117.649Z" fill="black"/>
<path d="M1057.62 117.649H998.87V176.397H1057.62V117.649Z" fill="black"/>
<path d="M1116.37 117.649H1057.62V176.397H1116.37V117.649Z" fill="black"/>
<path d="M1233.86 117.649H1175.11V176.397H1233.86V117.649Z" fill="black"/>
<path d="M1351.36 117.649H1292.61V176.397H1351.36V117.649Z" fill="black"/>
<path d="M1468.86 117.649H1410.11V176.397H1468.86V117.649Z" fill="black"/>
<path d="M1527.6 117.649H1468.86V176.397H1527.6V117.649Z" fill="black"/>
<path d="M1586.35 117.649H1527.6V176.397H1586.35V117.649Z" fill="black"/>
<path d="M1703.85 117.649H1645.1V176.397H1703.85V117.649Z" fill="black"/>
<path d="M58.9005 176.397H0.152344V235.145H58.9005V176.397Z" fill="black"/>
<path d="M176.397 176.397H117.649V235.145H176.397V176.397Z" fill="black"/>
<path d="M235.145 176.397H176.397V235.145H235.145V176.397Z" fill="black"/>
<path d="M293.893 176.397H235.145V235.145H293.893V176.397Z" fill="black"/>
<path d="M411.389 176.397H352.641V235.145H411.389V176.397Z" fill="black"/>
<path d="M646.382 176.397H587.633V235.145H646.382V176.397Z" fill="black"/>
<path d="M822.626 176.397H763.878V235.145H822.626V176.397Z" fill="black"/>
<path d="M881.374 176.397H822.626V235.145H881.374V176.397Z" fill="black"/>
<path d="M940.122 176.397H881.374V235.145H940.122V176.397Z" fill="black"/>
<path d="M998.87 176.397H940.122V235.145H998.87V176.397Z" fill="black"/>
<path d="M1175.11 176.397H1116.37V235.145H1175.11V176.397Z" fill="black"/>
<path d="M1351.36 176.397H1292.61V235.145H1351.36V176.397Z" fill="black"/>
<path d="M1468.86 176.397H1410.11V235.145H1468.86V176.397Z" fill="black"/>
<path d="M1527.6 176.397H1468.86V235.145H1527.6V176.397Z" fill="black"/>
<path d="M1586.35 176.397H1527.6V235.145H1586.35V176.397Z" fill="black"/>
<path d="M1703.85 176.397H1645.1V235.145H1703.85V176.397Z" fill="black"/>
<path d="M58.9005 235.145H0.152344V293.893H58.9005V235.145Z" fill="black"/>
<path d="M176.397 235.145H117.649V293.893H176.397V235.145Z" fill="black"/>
<path d="M235.145 235.145H176.397V293.893H235.145V235.145Z" fill="black"/>
<path d="M293.893 235.145H235.145V293.893H293.893V235.145Z" fill="black"/>
<path d="M411.389 235.145H352.641V293.893H411.389V235.145Z" fill="black"/>
<path d="M646.382 235.145H587.633V293.893H646.382V235.145Z" fill="black"/>
<path d="M822.626 235.145H763.878V293.893H822.626V235.145Z" fill="black"/>
<path d="M940.122 235.145H881.374V293.893H940.122V235.145Z" fill="black"/>
<path d="M1057.62 235.145H998.87V293.893H1057.62V235.145Z" fill="black"/>
<path d="M1175.11 235.145H1116.37V293.893H1175.11V235.145Z" fill="black"/>
<path d="M1351.36 235.145H1292.61V293.893H1351.36V235.145Z" fill="black"/>
<path d="M1468.86 235.145H1410.11V293.893H1468.86V235.145Z" fill="black"/>
<path d="M1527.6 235.145H1468.86V293.893H1527.6V235.145Z" fill="black"/>
<path d="M1586.35 235.145H1527.6V293.893H1586.35V235.145Z" fill="black"/>
<path d="M1703.85 235.145H1645.1V293.893H1703.85V235.145Z" fill="black"/>
<path d="M58.9005 293.893H0.152344V352.641H58.9005V293.893Z" fill="black"/>
<path d="M411.389 293.893H352.641V352.641H411.389V293.893Z" fill="black"/>
<path d="M646.382 293.893H587.633V352.641H646.382V293.893Z" fill="black"/>
<path d="M881.374 293.893H822.626V352.641H881.374V293.893Z" fill="black"/>
<path d="M1116.37 293.893H1057.62V352.641H1116.37V293.893Z" fill="black"/>
<path d="M1175.11 293.893H1116.37V352.641H1175.11V293.893Z" fill="black"/>
<path d="M1351.36 293.893H1292.61V352.641H1351.36V293.893Z" fill="black"/>
<path d="M1703.85 293.893H1645.1V352.641H1703.85V293.893Z" fill="black"/>
<path d="M58.9005 352.641H0.152344V411.389H58.9005V352.641Z" fill="black"/>
<path d="M117.649 352.641H58.9005V411.389H117.649V352.641Z" fill="black"/>
<path d="M176.397 352.641H117.649V411.389H176.397V352.641Z" fill="black"/>
<path d="M235.145 352.641H176.397V411.389H235.145V352.641Z" fill="black"/>
<path d="M293.893 352.641H235.145V411.389H293.893V352.641Z" fill="black"/>
<path d="M352.641 352.641H293.893V411.389H352.641V352.641Z" fill="black"/>
<path d="M411.389 352.641H352.641V411.389H411.389V352.641Z" fill="black"/>
<path d="M528.885 352.641H470.137V411.389H528.885V352.641Z" fill="black"/>
<path d="M646.382 352.641H587.633V411.389H646.382V352.641Z" fill="black"/>
<path d="M763.878 352.641H705.13V411.389H763.878V352.641Z" fill="black"/>
<path d="M881.374 352.641H822.626V411.389H881.374V352.641Z" fill="black"/>
<path d="M998.87 352.641H940.122V411.389H998.87V352.641Z" fill="black"/>
<path d="M1116.37 352.641H1057.62V411.389H1116.37V352.641Z" fill="black"/>
<path d="M1233.86 352.641H1175.11V411.389H1233.86V352.641Z" fill="black"/>
<path d="M1351.36 352.641H1292.61V411.389H1351.36V352.641Z" fill="black"/>
<path d="M1410.11 352.641H1351.36V411.389H1410.11V352.641Z" fill="black"/>
<path d="M1468.86 352.641H1410.11V411.389H1468.86V352.641Z" fill="black"/>
<path d="M1527.6 352.641H1468.86V411.389H1527.6V352.641Z" fill="black"/>
<path d="M1586.35 352.641H1527.6V411.389H1586.35V352.641Z" fill="black"/>
<path d="M1645.1 352.641H1586.35V411.389H1645.1V352.641Z" fill="black"/>
<path d="M1703.85 352.641H1645.1V411.389H1703.85V352.641Z" fill="black"/>
<path d="M587.633 411.389H528.885V470.137H587.633V411.389Z" fill="black"/>
<path d="M763.878 411.389H705.13V470.137H763.878V411.389Z" fill="black"/>
<path d="M940.122 411.389H881.374V470.137H940.122V411.389Z" fill="black"/>
<path d="M998.87 411.389H940.122V470.137H998.87V411.389Z" fill="black"/>
<path d="M1057.62 411.389H998.87V470.137H1057.62V411.389Z" fill="black"/>
<path d="M1233.86 411.389H1175.11V470.137H1233.86V411.389Z" fill="black"/>
<path d="M117.649 470.137H58.9005V528.885H117.649V470.137Z" fill="black"/>
<path d="M176.397 470.137H117.649V528.885H176.397V470.137Z" fill="black"/>
<path d="M235.145 470.137H176.397V528.885H235.145V470.137Z" fill="black"/>
<path d="M411.389 470.137H352.641V528.885H411.389V470.137Z" fill="black"/>
<path d="M470.137 470.137H411.389V528.885H470.137V470.137Z" fill="black"/>
<path d="M528.885 470.137H470.137V528.885H528.885V470.137Z" fill="black"/>
<path d="M587.633 470.137H528.885V528.885H587.633V470.137Z" fill="black"/>
<path d="M705.13 470.137H646.382V528.885H705.13V470.137Z" fill="black"/>
<path d="M763.878 470.137H705.13V528.885H763.878V470.137Z" fill="black"/>
<path d="M822.626 470.137H763.878V528.885H822.626V470.137Z" fill="black"/>
<path d="M881.374 470.137H822.626V528.885H881.374V470.137Z" fill="black"/>
<path d="M998.87 470.137H940.122V528.885H998.87V470.137Z" fill="black"/>
<path d="M1057.62 470.137H998.87V528.885H1057.62V470.137Z" fill="black"/>
<path d="M1233.86 470.137H1175.11V528.885H1233.86V470.137Z" fill="black"/>
<path d="M1292.61 470.137H1233.86V528.885H1292.61V470.137Z" fill="black"/>
<path d="M1703.85 470.137H1645.1V528.885H1703.85V470.137Z" fill="black"/>
<path d="M117.649 528.885H58.9005V587.633H117.649V528.885Z" fill="black"/>
<path d="M352.641 528.885H293.893V587.633H352.641V528.885Z" fill="black"/>
<path d="M587.633 528.885H528.885V587.633H587.633V528.885Z" fill="black"/>
<path d="M705.13 528.885H646.382V587.633H705.13V528.885Z" fill="black"/>
<path d="M763.878 528.885H705.13V587.633H763.878V528.885Z" fill="black"/>
<path d="M822.626 528.885H763.878V587.633H822.626V528.885Z" fill="black"/>
<path d="M881.374 528.885H822.626V587.633H881.374V528.885Z" fill="black"/>
<path d="M940.122 528.885H881.374V587.633H940.122V528.885Z" fill="black"/>
<path d="M998.87 528.885H940.122V587.633H998.87V528.885Z" fill="black"/>
<path d="M1057.62 528.885H998.87V587.633H1057.62V528.885Z" fill="black"/>
<path d="M1116.37 528.885H1057.62V587.633H1116.37V528.885Z" fill="black"/>
<path d="M1233.86 528.885H1175.11V587.633H1233.86V528.885Z" fill="black"/>
<path d="M1645.1 528.885H1586.35V587.633H1645.1V528.885Z" fill="black"/>
<path d="M58.9005 587.633H0.152344V646.382H58.9005V587.633Z" fill="black"/>
<path d="M117.649 587.633H58.9005V646.382H117.649V587.633Z" fill="black"/>
<path d="M176.397 587.633H117.649V646.382H176.397V587.633Z" fill="black"/>
<path d="M352.641 587.633H293.893V646.382H352.641V587.633Z" fill="black"/>
<path d="M411.389 587.633H352.641V646.382H411.389V587.633Z" fill="black"/>
<path d="M470.137 587.633H411.389V646.382H470.137V587.633Z" fill="black"/>
<path d="M528.885 587.633H470.137V646.382H528.885V587.633Z" fill="black"/>
<path d="M587.633 587.633H528.885V646.382H587.633V587.633Z" fill="black"/>
<path d="M822.626 587.633H763.878V646.382H822.626V587.633Z" fill="black"/>
<path d="M1057.62 587.633H998.87V646.382H1057.62V587.633Z" fill="black"/>
<path d="M1116.37 587.633H1057.62V646.382H1116.37V587.633Z" fill="black"/>
<path d="M1175.11 587.633H1116.37V646.382H1175.11V587.633Z" fill="black"/>
<path d="M1233.86 587.633H1175.11V646.382H1233.86V587.633Z" fill="black"/>
<path d="M1410.11 587.633H1351.36V646.382H1410.11V587.633Z" fill="black"/>
<path d="M1527.6 587.633H1468.86V646.382H1527.6V587.633Z" fill="black"/>
<path d="M1586.35 587.633H1527.6V646.382H1586.35V587.633Z" fill="black"/>
<path d="M1645.1 587.633H1586.35V646.382H1645.1V587.633Z" fill="black"/>
<path d="M58.9005 646.382H0.152344V705.13H58.9005V646.382Z" fill="black"/>
<path d="M176.397 646.382H117.649V705.13H176.397V646.382Z" fill="black"/>
<path d="M235.145 646.382H176.397V705.13H235.145V646.382Z" fill="black"/>
<path d="M352.641 646.382H293.893V705.13H352.641V646.382Z" fill="black"/>
<path d="M470.137 646.382H411.389V705.13H470.137V646.382Z" fill="black"/>
<path d="M587.633 646.382H528.885V705.13H587.633V646.382Z" fill="black"/>
<path d="M705.13 646.382H646.382V705.13H705.13V646.382Z" fill="black"/>
<path d="M822.626 646.382H763.878V705.13H822.626V646.382Z" fill="black"/>
<path d="M881.374 646.382H822.626V705.13H881.374V646.382Z" fill="black"/>
<path d="M998.87 646.382H940.122V705.13H998.87V646.382Z" fill="black"/>
<path d="M1233.86 646.382H1175.11V705.13H1233.86V646.382Z" fill="black"/>
<path d="M1468.86 646.382H1410.11V705.13H1468.86V646.382Z" fill="black"/>
<path d="M1527.6 646.382H1468.86V705.13H1527.6V646.382Z" fill="black"/>
<path d="M1586.35 646.382H1527.6V705.13H1586.35V646.382Z" fill="black"/>
<path d="M1703.85 646.382H1645.1V705.13H1703.85V646.382Z" fill="black"/>
<path d="M58.9005 705.13H0.152344V763.878H58.9005V705.13Z" fill="black"/>
<path d="M293.893 705.13H235.145V763.878H293.893V705.13Z" fill="black"/>
<path d="M411.389 705.13H352.641V763.878H411.389V705.13Z" fill="black"/>
<path d="M587.633 705.13H528.885V763.878H587.633V705.13Z" fill="black"/>
<path d="M646.382 705.13H587.633V763.878H646.382V705.13Z" fill="black"/>
<path d="M998.87 705.13H940.122V763.878H998.87V705.13Z" fill="black"/>
<path d="M1233.86 705.13H1175.11V763.878H1233.86V705.13Z" fill="black"/>
<path d="M1351.36 705.13H1292.61V763.878H1351.36V705.13Z" fill="black"/>
<path d="M1527.6 705.13H1468.86V763.878H1527.6V705.13Z" fill="black"/>
<path d="M1703.85 705.13H1645.1V763.878H1703.85V705.13Z" fill="black"/>
<path d="M117.649 763.878H58.9005V822.626H117.649V763.878Z" fill="black"/>
<path d="M176.397 763.878H117.649V822.626H176.397V763.878Z" fill="black"/>
<path d="M587.633 763.878H528.885V822.626H587.633V763.878Z" fill="black"/>
<path d="M646.382 763.878H587.633V822.626H646.382V763.878Z" fill="black"/>
<path d="M705.13 763.878H646.382V822.626H705.13V763.878Z" fill="black"/>
<path d="M763.878 763.878H705.13V822.626H763.878V763.878Z" fill="black"/>
<path d="M1057.62 763.878H998.87V822.626H1057.62V763.878Z" fill="black"/>
<path d="M1175.11 763.878H1116.37V822.626H1175.11V763.878Z" fill="black"/>
<path d="M1468.86 763.878H1410.11V822.626H1468.86V763.878Z" fill="black"/>
<path d="M1527.6 763.878H1468.86V822.626H1527.6V763.878Z" fill="black"/>
<path d="M1645.1 763.878H1586.35V822.626H1645.1V763.878Z" fill="black"/>
<path d="M1703.85 763.878H1645.1V822.626H1703.85V763.878Z" fill="black"/>
<path d="M117.649 822.626H58.9005V881.374H117.649V822.626Z" fill="black"/>
<path d="M411.389 822.626H352.641V881.374H411.389V822.626Z" fill="black"/>
<path d="M470.137 822.626H411.389V881.374H470.137V822.626Z" fill="black"/>
<path d="M646.382 822.626H587.633V881.374H646.382V822.626Z" fill="black"/>
<path d="M1057.62 822.626H998.87V881.374H1057.62V822.626Z" fill="black"/>
<path d="M1233.86 822.626H1175.11V881.374H1233.86V822.626Z" fill="black"/>
<path d="M1292.61 822.626H1233.86V881.374H1292.61V822.626Z" fill="black"/>
<path d="M1410.11 822.626H1351.36V881.374H1410.11V822.626Z" fill="black"/>
<path d="M1468.86 822.626H1410.11V881.374H1468.86V822.626Z" fill="black"/>
<path d="M1527.6 822.626H1468.86V881.374H1527.6V822.626Z" fill="black"/>
<path d="M58.9005 881.374H0.152344V940.122H58.9005V881.374Z" fill="black"/>
<path d="M176.397 881.374H117.649V940.122H176.397V881.374Z" fill="black"/>
<path d="M293.893 881.374H235.145V940.122H293.893V881.374Z" fill="black"/>
<path d="M352.641 881.374H293.893V940.122H352.641V881.374Z" fill="black"/>
<path d="M470.137 881.374H411.389V940.122H470.137V881.374Z" fill="black"/>
<path d="M646.382 881.374H587.633V940.122H646.382V881.374Z" fill="black"/>
<path d="M705.13 881.374H646.382V940.122H705.13V881.374Z" fill="black"/>
<path d="M763.878 881.374H705.13V940.122H763.878V881.374Z" fill="black"/>
<path d="M822.626 881.374H763.878V940.122H822.626V881.374Z" fill="black"/>
<path d="M881.374 881.374H822.626V940.122H881.374V881.374Z" fill="black"/>
<path d="M998.87 881.374H940.122V940.122H998.87V881.374Z" fill="black"/>
<path d="M1057.62 881.374H998.87V940.122H1057.62V881.374Z" fill="black"/>
<path d="M1116.37 881.374H1057.62V940.122H1116.37V881.374Z" fill="black"/>
<path d="M1233.86 881.374H1175.11V940.122H1233.86V881.374Z" fill="black"/>
<path d="M1292.61 881.374H1233.86V940.122H1292.61V881.374Z" fill="black"/>
<path d="M1351.36 881.374H1292.61V940.122H1351.36V881.374Z" fill="black"/>
<path d="M1527.6 881.374H1468.86V940.122H1527.6V881.374Z" fill="black"/>
<path d="M1586.35 881.374H1527.6V940.122H1586.35V881.374Z" fill="black"/>
<path d="M58.9005 940.122H0.152344V998.87H58.9005V940.122Z" fill="black"/>
<path d="M117.649 940.122H58.9005V998.87H117.649V940.122Z" fill="black"/>
<path d="M235.145 940.122H176.397V998.87H235.145V940.122Z" fill="black"/>
<path d="M293.893 940.122H235.145V998.87H293.893V940.122Z" fill="black"/>
<path d="M411.389 940.122H352.641V998.87H411.389V940.122Z" fill="black"/>
<path d="M470.137 940.122H411.389V998.87H470.137V940.122Z" fill="black"/>
<path d="M587.633 940.122H528.885V998.87H587.633V940.122Z" fill="black"/>
<path d="M998.87 940.122H940.122V998.87H998.87V940.122Z" fill="black"/>
<path d="M1175.11 940.122H1116.37V998.87H1175.11V940.122Z" fill="black"/>
<path d="M1410.11 940.122H1351.36V998.87H1410.11V940.122Z" fill="black"/>
<path d="M1468.86 940.122H1410.11V998.87H1468.86V940.122Z" fill="black"/>
<path d="M1527.6 940.122H1468.86V998.87H1527.6V940.122Z" fill="black"/>
<path d="M1586.35 940.122H1527.6V998.87H1586.35V940.122Z" fill="black"/>
<path d="M1645.1 940.122H1586.35V998.87H1645.1V940.122Z" fill="black"/>
<path d="M58.9005 998.87H0.152344V1057.62H58.9005V998.87Z" fill="black"/>
<path d="M235.145 998.87H176.397V1057.62H235.145V998.87Z" fill="black"/>
<path d="M528.885 998.87H470.137V1057.62H528.885V998.87Z" fill="black"/>
<path d="M646.382 998.87H587.633V1057.62H646.382V998.87Z" fill="black"/>
<path d="M822.626 998.87H763.878V1057.62H822.626V998.87Z" fill="black"/>
<path d="M998.87 998.87H940.122V1057.62H998.87V998.87Z" fill="black"/>
<path d="M1116.37 998.87H1057.62V1057.62H1116.37V998.87Z" fill="black"/>
<path d="M1233.86 998.87H1175.11V1057.62H1233.86V998.87Z" fill="black"/>
<path d="M1527.6 998.87H1468.86V1057.62H1527.6V998.87Z" fill="black"/>
<path d="M1586.35 998.87H1527.6V1057.62H1586.35V998.87Z" fill="black"/>
<path d="M1703.85 998.87H1645.1V1057.62H1703.85V998.87Z" fill="black"/>
<path d="M117.649 1057.62H58.9005V1116.37H117.649V1057.62Z" fill="black"/>
<path d="M176.397 1057.62H117.649V1116.37H176.397V1057.62Z" fill="black"/>
<path d="M293.893 1057.62H235.145V1116.37H293.893V1057.62Z" fill="black"/>
<path d="M411.389 1057.62H352.641V1116.37H411.389V1057.62Z" fill="black"/>
<path d="M528.885 1057.62H470.137V1116.37H528.885V1057.62Z" fill="black"/>
<path d="M646.382 1057.62H587.633V1116.37H646.382V1057.62Z" fill="black"/>
<path d="M705.13 1057.62H646.382V1116.37H705.13V1057.62Z" fill="black"/>
<path d="M822.626 1057.62H763.878V1116.37H822.626V1057.62Z" fill="black"/>
<path d="M940.122 1057.62H881.374V1116.37H940.122V1057.62Z" fill="black"/>
<path d="M1057.62 1057.62H998.87V1116.37H1057.62V1057.62Z" fill="black"/>
<path d="M1116.37 1057.62H1057.62V1116.37H1116.37V1057.62Z" fill="black"/>
<path d="M1410.11 1057.62H1351.36V1116.37H1410.11V1057.62Z" fill="black"/>
<path d="M1527.6 1057.62H1468.86V1116.37H1527.6V1057.62Z" fill="black"/>
<path d="M293.893 1116.37H235.145V1175.11H293.893V1116.37Z" fill="black"/>
<path d="M470.137 1116.37H411.389V1175.11H470.137V1116.37Z" fill="black"/>
<path d="M528.885 1116.37H470.137V1175.11H528.885V1116.37Z" fill="black"/>
<path d="M587.633 1116.37H528.885V1175.11H587.633V1116.37Z" fill="black"/>
<path d="M705.13 1116.37H646.382V1175.11H705.13V1116.37Z" fill="black"/>
<path d="M763.878 1116.37H705.13V1175.11H763.878V1116.37Z" fill="black"/>
<path d="M822.626 1116.37H763.878V1175.11H822.626V1116.37Z" fill="black"/>
<path d="M940.122 1116.37H881.374V1175.11H940.122V1116.37Z" fill="black"/>
<path d="M1116.37 1116.37H1057.62V1175.11H1116.37V1116.37Z" fill="black"/>
<path d="M1175.11 1116.37H1116.37V1175.11H1175.11V1116.37Z" fill="black"/>
<path d="M1233.86 1116.37H1175.11V1175.11H1233.86V1116.37Z" fill="black"/>
<path d="M1351.36 1116.37H1292.61V1175.11H1351.36V1116.37Z" fill="black"/>
<path d="M1468.86 1116.37H1410.11V1175.11H1468.86V1116.37Z" fill="black"/>
<path d="M1527.6 1116.37H1468.86V1175.11H1527.6V1116.37Z" fill="black"/>
<path d="M1586.35 1116.37H1527.6V1175.11H1586.35V1116.37Z" fill="black"/>
<path d="M1703.85 1116.37H1645.1V1175.11H1703.85V1116.37Z" fill="black"/>
<path d="M117.649 1175.11H58.9005V1233.86H117.649V1175.11Z" fill="black"/>
<path d="M176.397 1175.11H117.649V1233.86H176.397V1175.11Z" fill="black"/>
<path d="M293.893 1175.11H235.145V1233.86H293.893V1175.11Z" fill="black"/>
<path d="M352.641 1175.11H293.893V1233.86H352.641V1175.11Z" fill="black"/>
<path d="M411.389 1175.11H352.641V1233.86H411.389V1175.11Z" fill="black"/>
<path d="M470.137 1175.11H411.389V1233.86H470.137V1175.11Z" fill="black"/>
<path d="M822.626 1175.11H763.878V1233.86H822.626V1175.11Z" fill="black"/>
<path d="M881.374 1175.11H822.626V1233.86H881.374V1175.11Z" fill="black"/>
<path d="M1057.62 1175.11H998.87V1233.86H1057.62V1175.11Z" fill="black"/>
<path d="M1175.11 1175.11H1116.37V1233.86H1175.11V1175.11Z" fill="black"/>
<path d="M1233.86 1175.11H1175.11V1233.86H1233.86V1175.11Z" fill="black"/>
<path d="M1292.61 1175.11H1233.86V1233.86H1292.61V1175.11Z" fill="black"/>
<path d="M1351.36 1175.11H1292.61V1233.86H1351.36V1175.11Z" fill="black"/>
<path d="M1410.11 1175.11H1351.36V1233.86H1410.11V1175.11Z" fill="black"/>
<path d="M1468.86 1175.11H1410.11V1233.86H1468.86V1175.11Z" fill="black"/>
<path d="M528.885 1233.86H470.137V1292.61H528.885V1233.86Z" fill="black"/>
<path d="M587.633 1233.86H528.885V1292.61H587.633V1233.86Z" fill="black"/>
<path d="M822.626 1233.86H763.878V1292.61H822.626V1233.86Z" fill="black"/>
<path d="M881.374 1233.86H822.626V1292.61H881.374V1233.86Z" fill="black"/>
<path d="M998.87 1233.86H940.122V1292.61H998.87V1233.86Z" fill="black"/>
<path d="M1233.86 1233.86H1175.11V1292.61H1233.86V1233.86Z" fill="black"/>
<path d="M1468.86 1233.86H1410.11V1292.61H1468.86V1233.86Z" fill="black"/>
<path d="M1527.6 1233.86H1468.86V1292.61H1527.6V1233.86Z" fill="black"/>
<path d="M1586.35 1233.86H1527.6V1292.61H1586.35V1233.86Z" fill="black"/>
<path d="M1645.1 1233.86H1586.35V1292.61H1645.1V1233.86Z" fill="black"/>
<path d="M58.9005 1292.61H0.152344V1351.36H58.9005V1292.61Z" fill="black"/>
<path d="M117.649 1292.61H58.9005V1351.36H117.649V1292.61Z" fill="black"/>
<path d="M176.397 1292.61H117.649V1351.36H176.397V1292.61Z" fill="black"/>
<path d="M235.145 1292.61H176.397V1351.36H235.145V1292.61Z" fill="black"/>
<path d="M293.893 1292.61H235.145V1351.36H293.893V1292.61Z" fill="black"/>
<path d="M352.641 1292.61H293.893V1351.36H352.641V1292.61Z" fill="black"/>
<path d="M411.389 1292.61H352.641V1351.36H411.389V1292.61Z" fill="black"/>
<path d="M528.885 1292.61H470.137V1351.36H528.885V1292.61Z" fill="black"/>
<path d="M763.878 1292.61H705.13V1351.36H763.878V1292.61Z" fill="black"/>
<path d="M822.626 1292.61H763.878V1351.36H822.626V1292.61Z" fill="black"/>
<path d="M1057.62 1292.61H998.87V1351.36H1057.62V1292.61Z" fill="black"/>
<path d="M1175.11 1292.61H1116.37V1351.36H1175.11V1292.61Z" fill="black"/>
<path d="M1233.86 1292.61H1175.11V1351.36H1233.86V1292.61Z" fill="black"/>
<path d="M1351.36 1292.61H1292.61V1351.36H1351.36V1292.61Z" fill="black"/>
<path d="M1468.86 1292.61H1410.11V1351.36H1468.86V1292.61Z" fill="black"/>
<path d="M1586.35 1292.61H1527.6V1351.36H1586.35V1292.61Z" fill="black"/>
<path d="M1645.1 1292.61H1586.35V1351.36H1645.1V1292.61Z" fill="black"/>
<path d="M58.9005 1351.36H0.152344V1410.11H58.9005V1351.36Z" fill="black"/>
<path d="M411.389 1351.36H352.641V1410.11H411.389V1351.36Z" fill="black"/>
<path d="M587.633 1351.36H528.885V1410.11H587.633V1351.36Z" fill="black"/>
<path d="M646.382 1351.36H587.633V1410.11H646.382V1351.36Z" fill="black"/>
<path d="M763.878 1351.36H705.13V1410.11H763.878V1351.36Z" fill="black"/>
<path d="M822.626 1351.36H763.878V1410.11H822.626V1351.36Z" fill="black"/>
<path d="M940.122 1351.36H881.374V1410.11H940.122V1351.36Z" fill="black"/>
<path d="M1057.62 1351.36H998.87V1410.11H1057.62V1351.36Z" fill="black"/>
<path d="M1233.86 1351.36H1175.11V1410.11H1233.86V1351.36Z" fill="black"/>
<path d="M1468.86 1351.36H1410.11V1410.11H1468.86V1351.36Z" fill="black"/>
<path d="M1586.35 1351.36H1527.6V1410.11H1586.35V1351.36Z" fill="black"/>
<path d="M1703.85 1351.36H1645.1V1410.11H1703.85V1351.36Z" fill="black"/>
<path d="M58.9005 1410.11H0.152344V1468.86H58.9005V1410.11Z" fill="black"/>
<path d="M176.397 1410.11H117.649V1468.86H176.397V1410.11Z" fill="black"/>
<path d="M235.145 1410.11H176.397V1468.86H235.145V1410.11Z" fill="black"/>
<path d="M293.893 1410.11H235.145V1468.86H293.893V1410.11Z" fill="black"/>
<path d="M411.389 1410.11H352.641V1468.86H411.389V1410.11Z" fill="black"/>
<path d="M587.633 1410.11H528.885V1468.86H587.633V1410.11Z" fill="black"/>
<path d="M822.626 1410.11H763.878V1468.86H822.626V1410.11Z" fill="black"/>
<path d="M1057.62 1410.11H998.87V1468.86H1057.62V1410.11Z" fill="black"/>
<path d="M1116.37 1410.11H1057.62V1468.86H1116.37V1410.11Z" fill="black"/>
<path d="M1233.86 1410.11H1175.11V1468.86H1233.86V1410.11Z" fill="black"/>
<path d="M1292.61 1410.11H1233.86V1468.86H1292.61V1410.11Z" fill="black"/>
<path d="M1351.36 1410.11H1292.61V1468.86H1351.36V1410.11Z" fill="black"/>
<path d="M1410.11 1410.11H1351.36V1468.86H1410.11V1410.11Z" fill="black"/>
<path d="M1468.86 1410.11H1410.11V1468.86H1468.86V1410.11Z" fill="black"/>
<path d="M1586.35 1410.11H1527.6V1468.86H1586.35V1410.11Z" fill="black"/>
<path d="M1645.1 1410.11H1586.35V1468.86H1645.1V1410.11Z" fill="black"/>
<path d="M58.9005 1468.86H0.152344V1527.6H58.9005V1468.86Z" fill="black"/>
<path d="M176.397 1468.86H117.649V1527.6H176.397V1468.86Z" fill="black"/>
<path d="M235.145 1468.86H176.397V1527.6H235.145V1468.86Z" fill="black"/>
<path d="M293.893 1468.86H235.145V1527.6H293.893V1468.86Z" fill="black"/>
<path d="M411.389 1468.86H352.641V1527.6H411.389V1468.86Z" fill="black"/>
<path d="M528.885 1468.86H470.137V1527.6H528.885V1468.86Z" fill="black"/>
<path d="M705.13 1468.86H646.382V1527.6H705.13V1468.86Z" fill="black"/>
<path d="M881.374 1468.86H822.626V1527.6H881.374V1468.86Z" fill="black"/>
<path d="M998.87 1468.86H940.122V1527.6H998.87V1468.86Z" fill="black"/>
<path d="M1116.37 1468.86H1057.62V1527.6H1116.37V1468.86Z" fill="black"/>
<path d="M1292.61 1468.86H1233.86V1527.6H1292.61V1468.86Z" fill="black"/>
<path d="M1351.36 1468.86H1292.61V1527.6H1351.36V1468.86Z" fill="black"/>
<path d="M1468.86 1468.86H1410.11V1527.6H1468.86V1468.86Z" fill="black"/>
<path d="M1527.6 1468.86H1468.86V1527.6H1527.6V1468.86Z" fill="black"/>
<path d="M1586.35 1468.86H1527.6V1527.6H1586.35V1468.86Z" fill="black"/>
<path d="M1645.1 1468.86H1586.35V1527.6H1645.1V1468.86Z" fill="black"/>
<path d="M58.9005 1527.6H0.152344V1586.35H58.9005V1527.6Z" fill="black"/>
<path d="M176.397 1527.6H117.649V1586.35H176.397V1527.6Z" fill="black"/>
<path d="M235.145 1527.6H176.397V1586.35H235.145V1527.6Z" fill="black"/>
<path d="M293.893 1527.6H235.145V1586.35H293.893V1527.6Z" fill="black"/>
<path d="M411.389 1527.6H352.641V1586.35H411.389V1527.6Z" fill="black"/>
<path d="M528.885 1527.6H470.137V1586.35H528.885V1527.6Z" fill="black"/>
<path d="M587.633 1527.6H528.885V1586.35H587.633V1527.6Z" fill="black"/>
<path d="M881.374 1527.6H822.626V1586.35H881.374V1527.6Z" fill="black"/>
<path d="M940.122 1527.6H881.374V1586.35H940.122V1527.6Z" fill="black"/>
<path d="M998.87 1527.6H940.122V1586.35H998.87V1527.6Z" fill="black"/>
<path d="M1057.62 1527.6H998.87V1586.35H1057.62V1527.6Z" fill="black"/>
<path d="M1233.86 1527.6H1175.11V1586.35H1233.86V1527.6Z" fill="black"/>
<path d="M1351.36 1527.6H1292.61V1586.35H1351.36V1527.6Z" fill="black"/>
<path d="M1527.6 1527.6H1468.86V1586.35H1527.6V1527.6Z" fill="black"/>
<path d="M1586.35 1527.6H1527.6V1586.35H1586.35V1527.6Z" fill="black"/>
<path d="M1645.1 1527.6H1586.35V1586.35H1645.1V1527.6Z" fill="black"/>
<path d="M1703.85 1527.6H1645.1V1586.35H1703.85V1527.6Z" fill="black"/>
<path d="M58.9005 1586.35H0.152344V1645.1H58.9005V1586.35Z" fill="black"/>
<path d="M411.389 1586.35H352.641V1645.1H411.389V1586.35Z" fill="black"/>
<path d="M528.885 1586.35H470.137V1645.1H528.885V1586.35Z" fill="black"/>
<path d="M587.633 1586.35H528.885V1645.1H587.633V1586.35Z" fill="black"/>
<path d="M822.626 1586.35H763.878V1645.1H822.626V1586.35Z" fill="black"/>
<path d="M1057.62 1586.35H998.87V1645.1H1057.62V1586.35Z" fill="black"/>
<path d="M1233.86 1586.35H1175.11V1645.1H1233.86V1586.35Z" fill="black"/>
<path d="M1468.86 1586.35H1410.11V1645.1H1468.86V1586.35Z" fill="black"/>
<path d="M1586.35 1586.35H1527.6V1645.1H1586.35V1586.35Z" fill="black"/>
<path d="M58.9005 1645.1H0.152344V1703.85H58.9005V1645.1Z" fill="black"/>
<path d="M117.649 1645.1H58.9005V1703.85H117.649V1645.1Z" fill="black"/>
<path d="M176.397 1645.1H117.649V1703.85H176.397V1645.1Z" fill="black"/>
<path d="M235.145 1645.1H176.397V1703.85H235.145V1645.1Z" fill="black"/>
<path d="M293.893 1645.1H235.145V1703.85H293.893V1645.1Z" fill="black"/>
<path d="M352.641 1645.1H293.893V1703.85H352.641V1645.1Z" fill="black"/>
<path d="M411.389 1645.1H352.641V1703.85H411.389V1645.1Z" fill="black"/>
<path d="M763.878 1645.1H705.13V1703.85H763.878V1645.1Z" fill="black"/>
<path d="M822.626 1645.1H763.878V1703.85H822.626V1645.1Z" fill="black"/>
<path d="M940.122 1645.1H881.374V1703.85H940.122V1645.1Z" fill="black"/>
<path d="M1057.62 1645.1H998.87V1703.85H1057.62V1645.1Z" fill="black"/>
<path d="M1116.37 1645.1H1057.62V1703.85H1116.37V1645.1Z" fill="black"/>
<path d="M1233.86 1645.1H1175.11V1703.85H1233.86V1645.1Z" fill="black"/>
<path d="M1410.11 1645.1H1351.36V1703.85H1410.11V1645.1Z" fill="black"/>
<path d="M1468.86 1645.1H1410.11V1703.85H1468.86V1645.1Z" fill="black"/>
<path d="M1527.6 1645.1H1468.86V1703.85H1527.6V1645.1Z" fill="black"/>
<path d="M1645.1 1645.1H1586.35V1703.85H1645.1V1645.1Z" fill="black"/>
</svg>
