<svg width="499" height="304" viewBox="0 0 499 304" fill="none" xmlns="http://www.w3.org/2000/svg">
<mask id="path-1-inside-1_4666_10991" fill="white">
<path d="M1.94379 300.095C68.7168 312.611 82.3833 283.484 82.7143 268.323L29.3465 243.885C43.5814 254.265 15.2699 292.617 1.94379 300.095Z"/>
</mask>
<path d="M82.7143 268.323L182.695 270.658L184.131 204.846L124.24 177.419L82.7143 268.323ZM1.94379 300.095L-47.096 212.873L-287.211 347.602L-16.3382 398.377L1.94379 300.095ZM29.3465 243.885L70.8722 152.981L-29.4988 324.647L29.3465 243.885ZM-17.2663 265.989C-16.8435 246.623 -7.93046 223.996 12.9545 210.528C31.3677 198.654 41.0378 205.713 20.2258 201.812L-16.3382 398.377C29.6228 406.993 79.5127 405.746 121.535 378.648C166.029 349.956 181.941 305.185 182.695 270.658L-17.2663 265.989ZM50.9835 387.316C68.6526 377.402 81.6283 363.944 88.4032 356.377C96.7631 347.04 105.092 335.935 112.164 323.932C118.413 313.326 127.841 295.103 131.593 272.553C135.241 250.632 136.208 198.137 88.1917 163.123L-29.4988 324.647C-47.6113 311.439 -58.7527 293.157 -63.6611 275.199C-68.0666 259.081 -66.8004 246.022 -65.7047 239.437C-64.5463 232.475 -62.7363 227.755 -61.9241 225.798C-61.0127 223.603 -60.3157 222.416 -60.2029 222.224C-60.0467 221.959 -60.0832 222.046 -60.3191 222.366C-60.5502 222.68 -60.7195 222.873 -60.7048 222.857C-60.6825 222.832 -60.5409 222.674 -60.2617 222.394C-59.992 222.123 -59.4813 221.625 -58.7164 220.95C-57.7558 220.102 -53.7837 216.625 -47.096 212.873L50.9835 387.316ZM-12.1792 334.789L41.1886 359.228L124.24 177.419L70.8722 152.981L-12.1792 334.789Z" fill="#8C95F8" mask="url(#path-1-inside-1_4666_10991)"/>
<rect x="30.3247" width="468" height="297" rx="32" fill="#8C95F8"/>
</svg>
