<svg width="498" height="310" viewBox="0 0 498 310" fill="none" xmlns="http://www.w3.org/2000/svg">
<mask id="path-1-inside-1_4666_10992" fill="white">
<path d="M496.394 305.155C431.406 317.668 418.105 288.55 417.783 273.394L469.724 248.963C455.87 259.34 483.424 297.68 496.394 305.155Z"/>
</mask>
<path d="M417.783 273.394L317.806 275.518L316.425 210.559L375.22 182.904L417.783 273.394ZM496.394 305.155L546.328 218.515L778.955 352.587L515.301 403.351L496.394 305.155ZM469.724 248.963L427.16 158.473L529.674 329L469.724 248.963ZM517.761 271.269C517.372 252.992 509.216 230.293 488.061 216.28C468.908 203.594 457.984 210.714 477.487 206.959L515.301 403.351C469.816 412.109 419.748 410.926 377.617 383.02C333.485 353.788 318.516 308.952 317.806 275.518L517.761 271.269ZM446.459 391.795C428.811 381.624 415.991 367.922 409.424 360.388C401.242 351.001 393.127 339.88 386.257 327.903C380.156 317.268 371.101 299.232 367.509 277.061C364.108 256.066 362.726 204.165 409.774 168.925L529.674 329C569.795 298.949 566.662 255.732 564.936 245.078C563.843 238.334 562.135 233.757 561.366 231.855C560.505 229.724 559.847 228.573 559.743 228.391C559.598 228.139 559.635 228.227 559.857 228.537C560.076 228.842 560.227 229.017 560.19 228.974C560.156 228.935 560.003 228.761 559.711 228.46C559.429 228.169 558.905 227.644 558.126 226.937C557.147 226.05 553.119 222.429 546.328 218.515L446.459 391.795ZM512.287 339.452L460.347 363.883L375.22 182.904L427.16 158.473L512.287 339.452Z" fill="#8C95F8" mask="url(#path-1-inside-1_4666_10992)"/>
<rect width="468" height="297" rx="32" transform="matrix(-1 0 0 1 468.809 0.940918)" fill="#8C95F8"/>
</svg>
